<svg id="Layer_1" data-name="Layer 1" xmlns="http://www.w3.org/2000/svg" viewBox="0 0 430.02 472.11"><path d="M296.49,42.55c0-6.44-.31-12.35.09-18.21.35-5,11.55-9.6,15.13-6.14,1.52,1.47,1.87,4.46,2.11,6.83.37,3.77.24,7.59.26,11.4,0,5.53,3.31,8,8.29,8.82q4.42.75,8.87,1.44c3.56.55,6.24,1.71,6.12,6.16-.13,4.67-3.87,4.08-6.45,4.45-3.06.44-6.26-.13-9.41-.28-2.7-.13-4.82.54-4.19,3.83,2.49,13,4.18,26.34,14,36.44,1.86,1.92,5.15,3.57,7.64,3.39,1.62-.12,3.83-3.61,4.29-5.88a79.14,79.14,0,0,0,1.45-15.67c0-3.3.4-5.47,4-6.16,3.07-.58,4-2.53,3.17-5.51a37.34,37.34,0,0,1,.6-21.92c1.35-4.32,3.36-6.76,8.22-7.09,4.61-.31,6.21,2.16,7.31,5.79,2.43,8.06,4.8,16.15,7.38,24.17a51.91,51.91,0,0,0,4,9.57c.84,1.49,3.28,3.53,4.24,3.2a6.91,6.91,0,0,0,3.89-4.41c1-5,1.07-10.16,1.8-15.21.41-2.85.71-6.07,2.23-8.34,3.94-5.88,10.76-5.76,14.09.4,2.64,4.89,4.23,10.38,5.95,15.71,7.41,22.85,14.69,45.73,22,68.6.39,1.22.61,2.49,1,4-5.11,1.41-9.49,1.49-14.07-1.19-15.54-9.1-32.68-12.29-50.35-10.95-6.67.5-13.14,4.24-19.59,6.8-2.89,1.15-5.09,1.38-6.6-1.76-1.37-2.84-4.92-4.93-1.3-9,7.83-8.85,18.14-10.89,28.88-10.44,8.54.36,17,2.51,25.49,4.06,5.59,1,6.21.53,5.69-5.13-.31-3.46-.28-7-.58-10.42-.24-2.79-1.82-4.06-4.4-2.45C387.55,107.82,369,99.17,364,88.25a28.6,28.6,0,0,0-1.82-3l-1.2.37c0,1,0,2,0,2.94-.09,5,.39,10.19-.41,15.12-1.5,9.23-5.61,13.32-15,13.56a61.17,61.17,0,0,1-20.9-2.91c-4-1.36-8.22-5.59-10-9.57-6.24-14.2-11.68-28.77-17-43.37-1.36-3.77-3-4.9-6.78-4.4-6.21.82-10.27-1.66-12.06-7.63-.45-1.48.61-4.53,1.85-5.16,2.36-1.2,5.33-1.36,8.08-1.62C291.43,42.36,294.06,42.55,296.49,42.55Z" transform="translate(-4.59 -16.99)"/><path d="M259.12,90.63c-6.27-3.94-6.88-3.61-11.36.7-5,4.78-10,9.83-15.78,13.41-14.7,9-34.09,4.28-44.31-9.57-3.88-5.26-2-10.83-2.37-16.23-.29-4.54.76-9.21,1.51-13.78,1.07-6.48,9.41-14.59,16.39-15.86,12.54-2.28,24-.07,32.7,9.86,4.06,4.64,6.78,5.45,12.87,2.29,14.44-7.51,36.11-5.42,48.46,11.64a41.94,41.94,0,0,1,2.19,3.77c-6.24,5-6.72,4.43-13.19.38-5.31-3.32-11.62-5.13-17.64-7.18-1.14-.38-3,1.27-4.48,2,.74,1.48,1.13,3.83,2.27,4.29,5.92,2.35,11.94,5.51,18.11,6,11.5.89,17.87,7.82,23,16.56,2.65,4.53-1.77,13.48-7.84,17.87-15.41,11.15-38.68,3.65-46-16.1C251.87,95.92,253,91.85,259.12,90.63Zm4.59.06-.39,1.38c1.84,2.08,3.43,4.46,5.56,6.17A95.17,95.17,0,0,0,281,106.79c3.87,2.21,7.61.68,9.62-3.06,2.44-4.53-1.45-6.64-4.06-7.47C279.1,93.89,271.35,92.48,263.71,90.69Zm-46.49,4.22c4.53.27,9.13-4,11-9.26,1-3,0-4.21-2.95-3.79a76.19,76.19,0,0,0-11.68,2.22c-2.24.7-4.08,2.67-6.1,4.07a65.91,65.91,0,0,0,6.11,5.95C214.63,94.91,216.42,94.76,217.22,94.91ZM204.07,75.8c6-2,11-3.52,15.8-5.3,1.32-.48,2.35-1.72,3.52-2.61-1.38-1-3.09-3.09-4.07-2.79a94.34,94.34,0,0,0-13.8,5.52C204.66,71,204.71,73.32,204.07,75.8Z" transform="translate(-4.59 -16.99)"/><path d="M124.12,84.76c.33-2.07.64-5,1.29-7.81,1-4.36,3.43-7.63,8.12-8.33s7.24,2.43,9.26,6.09a26.74,26.74,0,0,0,1.73,2.36c1.69-2.26,2.82-4.58,4.64-6a17.69,17.69,0,0,1,17.36-3.2c6,2,10.4,5.31,11.44,12.32.56,3.79,3.19,7.22,4.11,11a128.36,128.36,0,0,1,3.34,18.7c.36,3.84-2.72,6.39-6.18,7.6-9.27,3.26-14.2,10.41-17.77,18.92-.49,1.16-1.15,2.25-1.73,3.37l-1.15-.53a18.86,18.86,0,0,1,1-3c1.94-3.85,4.05-7.61,5.93-11.49,2-4.15,3.66-8.07,1.3-13.07-1.62-3.42-1.34-7.76-1.7-11.71-.28-3,.21-6.06-.46-8.91-.53-2.29-1.84-5.58-3.58-6.16-3.65-1.24-4.46,2.5-5.28,5.11-2.94,9.31-6.31,18.56-5.15,28.64a3.43,3.43,0,0,1-1,2.57c-5.53,4.87-13.16,2.16-14.94-5-1.06-4.28-2.66-8.42-4-12.62l-1.41-.11c-1.75,4.64-3.77,9.2-5.18,13.94a16.6,16.6,0,0,1-9.34,10.94,38.78,38.78,0,0,1-25.81,2.59c-4.61-1.16-8.6-6.11-12.11-10-9.46-10.58-2.47-21.85-.06-32.46C78.61,80.21,91.27,75,101.5,77.31,109.09,79.07,116.36,82.15,124.12,84.76ZM92.62,104l-1,.78c2.13,3.13,3.89,6.61,6.5,9.27s5.53,2.26,7.94-1.06c3.48-4.81,3.43-8.14-1.34-14.69-1.22-1.68-4-4.1-5-3.68-2.48,1.06-4.53,3.41-6.38,5.56C92.56,101,92.81,102.67,92.62,104Z" transform="translate(-4.59 -16.99)"/><path d="M15.27,142.42c-1.11-2.45-2.23-4.74-3.21-7.09-2-4.69-5.05-9.28-5.58-14.14C5.21,109.71,4.29,98.05,4.82,86.53A121,121,0,0,1,22.48,28.21c1.9-3.09,5.11-5.64,8.21-7.7,3.91-2.6,7.86-1,8.64,3.62a21.26,21.26,0,0,1-.79,9.15c-3.8,13-7.95,25.94-11.84,38.93-.48,1.63-.14,3.49-.18,5.25,1.65-.35,3.44-.4,4.92-1.1A23.27,23.27,0,0,1,62.84,88a31.3,31.3,0,0,1,3,16.25c-.6,7.09-.3,14.24-.66,21.35-.22,4.17-.89,8.55-5.72,10-5,1.52-10.75-1.55-13.65-5.64-3.76-5.29-3.3-11.3-4.25-17.12-.53-3.3-.2-7.94-4.71-8.2-4.76-.27-6.79,3.93-7.33,8a61.86,61.86,0,0,0,0,12.32c.63,9-1.64,12.3-10.44,14.94C17.42,140.38,16.09,141.86,15.27,142.42Z" transform="translate(-4.59 -16.99)"/><path d="M349.87,316.85a36.93,36.93,0,0,1,2.24-4.13c2.08-2.88,2.29-5.21-.68-7.92-2.74-2.51-2.85-6-1.25-9.41.83-1.78,1.58-3.6,2.82-6.41-9.65-.33-18.94.65-26.68-5.93-7.36-6.25-9.34-15.2-13.93-23.24-.5,2.63-.67,5.39-1.58,7.87-2.15,5.88-4.22,11.86-7.15,17.36-2.39,4.48-7.5,4.33-12,4.42-7.62.14-13.06-4.2-17.86-9.41-9.08-9.85-14.41-21.59-17.77-34.46-3.89-14.87-3.86-30.08-4.61-45.23a11.43,11.43,0,0,1,6.31-11c5-2.8,9.93-.9,11,4.69,1.83,9.65,2.65,19.53,4.89,29.08,2.83,12.07,6.42,24,10.21,35.81,1,3.09,3.95,5.55,6,8.3l1.58-.39a60.11,60.11,0,0,0,1.6-5.84c.57-3.33.72-6.75,1.4-10.05,1.79-8.6,6.78-10.48,13.57-5.28.57.43,1.24.72,2.71,1.57a32.49,32.49,0,0,0-.6-5.07c-1.42-4.88-3-9.7-4.49-14.56-.9-3-2.51-4.48-5.95-4.55-5.83-.12-12.6-8.13-12.18-14a3.19,3.19,0,0,1,1.25-2.28,32.25,32.25,0,0,1,6.7-2.9c2.79-.75,6.79,0,8.3-1.69s.74-5.56.93-8.47c.56-8.38,7.44-14,15.95-13.28,3.39.3,5.72,1.77,5.91,5.25.29,5.22.46,10.45.28,15.66-.21,5.79,1.19,7.93,6.79,9,2.73.53,5.43,1.28,8.19,1.55,5.31.52,6.92,4.27,7.22,8.56.26,3.65-2.5,5.5-5.9,5.76a79.78,79.78,0,0,1-10.6,0c-3.25-.17-4.52,1.3-4.54,4.33-.08,12.41,2.3,24.2,9.44,34.61a8.22,8.22,0,0,0,4.83,2.88c.68.13,2.34-2.09,2.74-3.47,1.64-5.71,3.22-11.46,4.29-17.29.61-3.36,1.62-6.09,5.11-6.81,4.43-.92,5.36-3.21,4.85-7.55a102.13,102.13,0,0,1-.25-17,27.13,27.13,0,0,1,2.22-8.83c1.47-3.55,7.82-3.29,11,.55a18.79,18.79,0,0,1,4.92,12,52.11,52.11,0,0,0,8.62,27c.89,1.35,2.77,2,4.19,3,1-1.46,2.7-2.84,2.87-4.39.55-5.18.43-10.43.81-15.64.19-2.54.36-5.34,1.53-7.5,3.5-6.45,10.62-6.85,14.67-.9a30.82,30.82,0,0,1,4,8.28q8.41,27.84,16.5,55.79c1.38,4.73,2.61,9.51,3.58,14.34.44,2.2,1,5.82-.13,6.61-2.52,1.8-6.25,3.53-9,3-5.37-1.05-10.3-4.16-15.64-5.57a275.14,275.14,0,0,0-27.76-6c-3-.48-6.6,1.1-9.57,2.5a66.73,66.73,0,0,0-11.9,7.08C356.44,309.8,353.58,313.21,349.87,316.85Zm12.36-64-1.39.82c.11,1.41.29,2.83.31,4.24.08,7.21.33,14.42.1,21.62-.12,3.69.43,4.57,3.92,3a46.13,46.13,0,0,1,21.14-3.93c5.72.23,11.46.05,17.72.05-.75-3.36-1.74-7-2.35-10.73-.65-3.9-2.49-4.75-6.41-4.25a32.52,32.52,0,0,1-12.52-.59C375.36,261,367.19,260.23,362.23,252.83Z" transform="translate(-4.59 -16.99)"/><path d="M65.87,271.39c-2.77,4.85-5.7,9.82-8.45,14.89-4.62,8.52-12.72,9.29-21.06,9.61-.6,0-1.22-.2-1.83-.24C26,295,26,295,21.45,302.21c1.05-10.8-3.93-19.08-7.64-27.76-4.28-10-6.17-20.56-6.73-31.42C6.41,229.85,5,216.7,4.75,203.51c-.17-9.54,6.91-16,16.49-16.67,2.57-.18,4.16.72,4.24,3.54.16,6.14.68,12.3.48,18.43a189.51,189.51,0,0,0,5,49,30.47,30.47,0,0,0,4,9.25c.85,1.33,3.42,2.62,4.83,2.29s3.08-2.49,3.53-4.15c1.31-4.73,1.83-9.68,3.18-14.39a5.73,5.73,0,0,1,3.87-3.28c7.81-1.16,13.58,1.55,15.63,9.67,2.07-3.56,3.71-7,5.93-10.07,7.47-10.25,23.16-11.28,32-7.51,4.09,1.75,8.21,3.48,12.2,5.46a8.26,8.26,0,0,1,3.81,3.25c5.46,11.48,9,23.28,3.84,35.87-1.8,4.38-4.64,8-9.79,8.94-7.53,1.4-15,3.4-22.59,4.17-11.71,1.2-16.61-7.71-21.43-16C68,278,67,274.27,65.87,271.39ZM93.54,258.7c-7.24,0-8.85,1.38-8.81,7.53s5.74,14.11,10,13.87c3.64-.2,8.23-6.63,8.26-11.56Q103,258.69,93.54,258.7Z" transform="translate(-4.59 -16.99)"/><path d="M172.44,281.77c-7.56,0-14.73.37-21.84-.12-5.87-.4-10.67-3.38-14.33-8.21-4.8-6.33-8.86-12.55-11.47-20.53-3.06-9.33-2-17.77-.7-26.6.63-4.34,3.87-5.75,7.8-3.56,5.46,3.05,10.55,6.05,12,13.49,1.41,7.28,5,14.15,7.84,21.14a9.71,9.71,0,0,0,2.92,4.09c1.45,1.07,3.57,2.19,5.12,1.89,1.13-.22,2.52-2.69,2.58-4.19.26-6.45.08-12.92,0-19.38,0-4.84,1.72-8.64,6.2-11,3-1.59,5.63-1.74,7.46,1.61,2.39,4.4,5.08,8.7,7,13.31,4.79,11.83,9.34,23.77,13.74,35.75,4.49,12.21,8.68,24.52,13.14,37.16-4.39,3.33-9.49,2.61-14.4-.06-9.73-5.3-20.1-5.06-30.64-4.21-11.31.91-20.4,6.3-28.77,13.51-5.47,4.72-12.55,2.84-13.38-3.73-.37-2.87,1.66-6.37,3.38-9.09,8.4-13.29,21.77-16.65,36.29-17.56,3.07-.19,6.23-.16,9.17-.91,1.12-.29,2.49-2.52,2.44-3.82C173.9,287.72,173,284.73,172.44,281.77Z" transform="translate(-4.59 -16.99)"/><path d="M250.42,246.94c.57,5.13.87,10.31,1.78,15.38.86,4.79,3.79,8.18,8.38,10.25s5.67,4.83,4.57,10.69c-.83,4.39-3.86,6.5-8,7-6.45.76-11.84-1.61-16.24-6.19-1.87-1.95-3.62-2.82-5.94-.9-6.76,5.57-17.39,4.29-25.43-2.82-10.72-9.5-15.34-26.73-6.91-40.09,5.89-9.34,15-12.77,25.43-9a7.61,7.61,0,0,0,4.75.23c10.29-3.68,18.45,2.11,18.23,13.1,0,.77-.07,1.53-.11,2.3Zm-21.35,12.49c-1.12-2.61-1.81-5.54-3.51-7.7-1.23-1.56-4-3.18-5.69-2.81-1.93.44-3.64,2.83-4.94,4.73-.78,1.14-.8,2.94-.78,4.45,0,4.25,4.74,9.5,8.4,9.61C225.76,267.8,228.35,264.28,229.07,259.43Z" transform="translate(-4.59 -16.99)"/><path d="M311.47,460.54c-.85,1.52-1.73,3.14-2.66,4.74-5.51,9.52-14.36,13.27-24.69,15.64-9.51,2.18-17.08-1.49-24.72-5.59-4.59-2.47-8.7-5.8-13.1-8.64-2.94-1.89-4.41-1.19-4.26,2.28.22,4.89.12,9.89,4.17,13.8,1.47,1.43,2,3.79,3,5.72l-1.23.62c-.79-1.29-1.5-2.63-2.37-3.85-3.38-4.74-7-5.86-12.44-3.93-5.63,2-7,1.47-9.3-4.21s-4.36-11.39-6.82-17.86a42.4,42.4,0,0,0-3.53,4.13c-3.39,5.29-7.61,8.95-14.38,8.94-3.77,0-7.54.73-11.31.95a24.94,24.94,0,0,1-19.75-7.78C163,460.24,159,453.91,154.49,448c-2.55-3.33-1.28-5.59,2.07-7.26a19.13,19.13,0,0,0,1.8-1.14c-4.4-4.25-8-3.84-11.78.76-7.91,9.59-18.24,14.25-30.59,15.39-12.66,1.17-24-1.73-33.07-10.54C78.55,441,75.71,435.17,72.23,430a25.77,25.77,0,0,1-1.6-3.41L47.7,437.38l22,13.34c-2.89,7.4-14.18,13.31-22.1,11.61S33.7,455.91,27.7,450.91A79.19,79.19,0,0,1,5.45,420.53c-3-6.92,2.07-13.88,9.67-13.82,3.49,0,7.27,0,10.35,1.29,2.44,1.05,4.4,3.89,5.88,6.35,3.29,5.51,6.08,6.63,11.5,3.12,7.83-5.08,15.41-10.55,23.13-15.81,3.93-2.68,7.68-6.17,13-2.58.74.5,2.7,0,3.6-.67,8.5-6.41,18.38-6.1,28.11-5.47,11.65.76,21.17,6.07,28.37,15.35a16.12,16.12,0,0,1,1.1,1.7c22-10.14,42-7.79,60.62,6,.61-.92,1-1.26.89-1.38-5.07-9.42-7.75-20.11-15.26-28.26a84.06,84.06,0,0,1-6.53-8.76c-1.51-2.15-1.18-4.09,1.07-5.61,4.25-2.87,7.71-3.55,12.06-.21,5.59,4.27,12.32,7.14,18.75,10.2,15.16,7.18,30.54,13.91,45.63,21.22,10.18,4.92,10.21,5.6,7.3,17,16.82,3.16,34.36,5.74,38.67,26.89.65-3.87.86-7.88,2-11.59,3-9.6,10.13-14.55,19.77-16.18,4.22-.71,8.47-1.23,13.63-2-2.54-2.22-4.64-3.48-5.88-5.32s-2.53-4.44-2.25-6.5c.16-1.25,3.12-2.54,5-3.05,2.64-.72,5.49-.66,8.23-1,3.31-.47,4.62-1.84,2.91-5.37-2.15-4.46-3.89-9.13-5.67-13.76-2-5.15-.49-7.47,6.41-10.34a7.22,7.22,0,0,1,9.64,3.94c1.95,5,3.39,10.23,5.13,15.32,2.25,6.55,3.11,7.35,9.95,7.37a96.88,96.88,0,0,0,13.93-1c4.39-.62,5.94,1.59,7.1,5.25,1.24,3.93-1.19,5.05-3.94,5.89a77.67,77.67,0,0,1-8.93,2.09c-2.72.5-3.44,1.86-2.37,4.32,5.8,13.27,12.9,25.54,25.88,33.2,1.5.89,3.23,2.19,4.73,2.05,1.79-.18,4.8-1.57,4.91-2.67a28.64,28.64,0,0,0-.9-10.59c-1.42-4.82-3.7-9.39-5.7-14.29,4.08-1.72,7.62-3.34,12-1.66a8.5,8.5,0,0,1,5.29,5.21c2.87,7,6.36,13.75,9.08,20.81,2.91,7.54.82,13.66-5.22,19a8.68,8.68,0,0,0-2.62,5.14c-.27,2.5.42,5.1.81,8.73-.94-1.87-1.49-2.82-1.93-3.83-1.92-4.47-5-6.52-10.16-6.52a34.4,34.4,0,0,1-26.67-12.1c-10.24-11.72-20-23.85-30.13-35.69-1.27-1.49-3.32-2.32-5-3.46l-.77,1.07c1.28,3.34,2.67,6.64,3.81,10,1.84,5.45-.69,8-6.36,7.57-5.12-.42-9.9-2.92-15.58-.42-7.74,3.41-6.36,11-1.73,15.12,5.69,5,13.9,5,20,.2a28.77,28.77,0,0,0,5.24-4.63c3.56-4.63,8.36-4.69,13.4-4.16a4.65,4.65,0,0,1,2.38.9c6,5,5,14.73-1,19.8-9.68,8.2-21.17,9.87-33,9.94-9.78.06-17.69-5.19-24.87-11.43-.65-.56-1.22-1.22-1.84-1.82C312,460.55,311.84,460.58,311.47,460.54ZM96.26,430.48c3.11,8.47,7.9,11.77,14.71,11,6.61-.76,14.36-6.56,14.55-14.14Zm168.67,26.44c.34,5.27,6.94,11.1,12,11.27,10.64.37,14.17-2.13,15.69-11.27Zm-97.5-15.55c5.11,4.95,10.08,9.93,17.53,10.23,1.81.07,3.66-1,5.49-1.55-.86-1.84-1.22-4.44-2.67-5.39C181.63,440.62,174.56,440.8,167.43,441.37Zm71,4.33c2.19-6.26,4.46-12.75,7.14-20.43-5.31,2-10.13,3.7-14.79,5.74-.49.21-.59,2.77,0,3.7C233.26,438.62,236.05,442.33,238.44,445.7Zm1.9-33.17.58-1.38c-3.57-2.76-7.11-5.57-10.77-8.2-.45-.33-1.91.07-2.4.6-2.4,2.57-4.63,5.29-7.79,9Zm43,30.08c-1-5.14-7.71-9.68-13.81-9.17-3.31.29-6.39,1.64-7.12,5.87Zm-68.15,2.13c-1.46-4.56-2.41-8.19-3.82-11.64-1.08-2.65-3.39-3.21-6.16-2.53s-4.12,2.27-3,4.25ZM165.82,422.3c1.24,2.47,15.78,7.5,18.92,6.55C182,422.34,173.21,419.3,165.82,422.3Zm-48.88-11.52c-5.13-5.93-15.74-6.54-20.27,0Z" transform="translate(-4.59 -16.99)"/></svg>