<svg width="91" height="66" viewBox="0 0 91 66" fill="none" xmlns="http://www.w3.org/2000/svg">
<path d="M90.7503 13.3738V12.7097H90.7088H90.5005C89.086 9.17899 84.3842 6.14692 76.728 3.86276C68.364 1.37069 57.2548 0 45.4793 0C33.7037 0 22.5945 1.37069 14.2305 3.86276C6.53285 6.14692 1.87259 9.17899 0.458023 12.7097H0.249743V13.3324C0.0829266 13.8724 0 14.4538 0 15.0352C0 15.6166 0.0829266 16.1566 0.20828 16.6966C0.166817 24.09 0.125354 50.7145 0.125354 50.9638C0.125354 55.4917 5.03536 59.3545 14.3144 62.1372C22.6774 64.6293 33.7047 66 45.4378 66C57.088 66 68.0738 64.6293 76.4368 62.1786C85.6744 59.4373 90.6259 55.6573 90.7503 51.1717V50.1745V16.6966C90.9171 16.1566 91 15.5752 91 15.0352C90.999 14.4538 90.9161 13.9138 90.7503 13.3738ZM86.6309 15.0352C86.6309 15.5752 86.3397 16.2817 85.632 17.0287C84.1759 18.5659 81.0546 20.4342 75.4793 22.0966C67.4904 24.4645 56.8382 25.7938 45.4793 25.7938C34.1203 25.7938 23.4681 24.5059 15.4792 22.0966C9.9039 20.4352 6.7826 18.6073 5.32657 17.0287C4.6188 16.2808 4.32759 15.6166 4.32759 15.0352C4.32759 14.9938 4.32759 14.9111 4.32759 14.8687C4.36906 14.2459 4.78562 13.498 5.65924 12.7087C7.24062 11.2138 10.3195 9.51011 15.4792 7.97387C23.4681 5.60596 34.1203 4.27666 45.4793 4.27666C56.8382 4.27666 67.4904 5.56457 75.4793 7.97387C80.639 9.51108 83.7179 11.2138 85.2993 12.7087C86.1729 13.498 86.548 14.2459 86.6309 14.8687C86.6309 14.9111 86.6309 14.9938 86.6309 15.0352Z" fill="black"/>
</svg>
