<svg width="95" height="115" viewBox="0 0 95 115" fill="none" xmlns="http://www.w3.org/2000/svg">
<path d="M94.9975 62.1013C94.9975 62.0886 94.9962 62.0772 94.9962 62.0646C94.9937 62.0355 94.9899 62.0064 94.9861 61.976C94.9823 61.9469 94.9785 61.9166 94.9722 61.8862C94.9532 61.7876 94.9254 61.6864 94.89 61.5814C94.8773 61.5459 94.8647 61.5105 94.8495 61.4751C94.8356 61.4397 94.8204 61.403 94.804 61.3663V61.365C94.7382 61.2183 94.6572 61.0652 94.5611 60.9008V60.8995C94.5282 60.8451 94.494 60.7907 94.4586 60.7338C94.4586 60.7325 94.4586 60.7325 94.4586 60.7325C94.4219 60.6756 94.3852 60.6187 94.346 60.5592V60.5579C94.2967 60.4846 94.2448 60.4087 94.1904 60.3315C94.026 60.0987 93.8375 59.847 93.6237 59.5725C93.2417 59.0817 92.8584 58.5921 92.4725 58.1038C92.4156 58.033 92.3599 57.9634 92.3043 57.8926C92.1272 57.6699 91.9501 57.4485 91.7717 57.2271C91.5642 56.9678 91.3555 56.7098 91.1455 56.4517C90.9709 56.2366 90.7951 56.0228 90.6193 55.8091C90.4434 55.5953 90.2676 55.3815 90.0905 55.169C89.9134 54.9564 89.7363 54.7439 89.5579 54.5326C88.8444 53.6851 88.1221 52.8464 87.3884 52.0178C87.205 51.8116 87.0203 51.6054 86.8356 51.3992C86.637 51.1791 86.4586 50.9539 86.3005 50.7275C86.2208 50.6136 86.1461 50.501 86.0766 50.3859C86.0525 50.3479 86.0298 50.3087 86.0082 50.2708C85.9412 50.1557 85.8792 50.0393 85.8223 49.9229C85.7641 49.8053 85.7122 49.6876 85.6642 49.57C85.6313 49.4915 85.6022 49.4118 85.5743 49.3334C85.5604 49.2929 85.5465 49.2537 85.5339 49.2145C85.4946 49.0943 85.4605 48.9754 85.4314 48.8552C85.3719 48.6149 85.3302 48.372 85.3074 48.1278C85.2315 47.3347 85.3416 46.5263 85.6262 45.7167C85.6401 45.6737 85.6553 45.6319 85.6718 45.5889C85.7135 45.4789 85.7514 45.3676 85.7869 45.2588C86.408 43.3473 86.1891 41.5902 85.4618 39.852C85.0911 38.9627 84.7154 38.0772 84.3372 37.1904C83.9589 36.3049 83.5781 35.4207 83.1961 34.5364C82.685 33.3587 82.1714 32.1822 81.6578 31.007C81.143 29.8305 80.6268 28.6541 80.1132 27.4763C79.8552 26.8893 79.5984 26.3011 79.3428 25.7129C79.2391 25.4763 79.1101 25.2423 78.9836 25.0083C78.9317 24.9146 78.8811 24.8223 78.8318 24.7287C78.8065 24.6831 78.7824 24.6363 78.7597 24.5883C78.7242 24.5187 78.6901 24.4478 78.6585 24.377C78.6154 24.2834 78.5775 24.1885 78.5446 24.0924C78.5029 23.9735 78.47 23.8533 78.4497 23.7318C78.4282 23.6117 78.4194 23.489 78.4257 23.365C78.4257 23.341 78.4282 23.3169 78.4308 23.2929C78.432 23.2688 78.4346 23.2448 78.4383 23.2195C78.4447 23.1714 78.4548 23.1221 78.4662 23.0728C78.4725 23.0475 78.4788 23.0234 78.4864 22.9981C78.4927 22.9728 78.5016 22.9488 78.5105 22.9235C78.518 22.8982 78.5282 22.8729 78.5383 22.8476C78.5484 22.8223 78.5585 22.797 78.5712 22.7717C78.5826 22.7464 78.5939 22.7211 78.6079 22.6958C78.6205 22.6705 78.6344 22.6439 78.6496 22.6186C78.6635 22.5933 78.6787 22.5668 78.6951 22.5415C78.7597 22.4377 78.8381 22.3327 78.9304 22.2252C78.9444 22.21 78.9532 22.191 78.9595 22.1695C78.9621 22.1632 78.9633 22.1569 78.9646 22.1506C78.9684 22.1392 78.9697 22.1278 78.9722 22.1151C78.9734 22.1025 78.9747 22.0898 78.976 22.0759C78.976 22.0747 78.976 22.0747 78.976 22.0734C78.9785 22.0456 78.9785 22.0152 78.9785 21.9861C78.9785 21.9558 78.9798 21.9254 78.9823 21.8976C79.0089 21.5902 79.038 21.284 79.0696 20.9779C79.0924 20.7515 79.1151 20.525 79.1379 20.2986C79.1493 20.1847 79.1607 20.0721 79.1708 19.9595C79.1796 19.8672 79.1872 19.7749 79.1948 19.6838C79.1974 19.6623 79.1999 19.6408 79.2012 19.6193C79.2087 19.5307 79.2151 19.4422 79.2227 19.3536C79.2328 19.2107 79.2429 19.0677 79.2505 18.9248C79.2543 18.8425 79.2593 18.7603 79.2619 18.6793C79.2657 18.611 79.2682 18.5427 79.2695 18.4744C79.2733 18.3897 79.2745 18.3049 79.2758 18.2201C79.2859 17.5092 79.2657 16.8033 79.2037 16.1113C79.1948 16.0139 79.1847 15.9165 79.1746 15.8204C79.1442 15.5383 79.1063 15.2587 79.0595 14.9817C79.0569 14.9678 79.0544 14.9526 79.0519 14.9387C79.0291 14.8109 79.0051 14.6831 78.9798 14.5566C78.9772 14.544 78.9747 14.5301 78.9722 14.5161C78.9051 14.1999 78.828 13.8887 78.7356 13.5813C78.7204 13.5307 78.7053 13.4801 78.6901 13.4295C78.661 13.3422 78.6319 13.2537 78.6028 13.1664C78.6015 13.1651 78.6015 13.1638 78.6015 13.1626C78.5244 12.9412 78.4396 12.7236 78.3473 12.5086C78.346 12.5073 78.346 12.506 78.346 12.5048C78.2524 12.2897 78.1512 12.0784 78.0411 11.871C78.0399 11.8697 78.0399 11.8697 78.0399 11.8685C77.84 11.494 77.611 11.1309 77.3504 10.7831V10.7818C77.291 10.7046 77.2315 10.6287 77.1708 10.5528C77.1392 10.5149 77.1075 10.4769 77.0772 10.4377C76.981 10.3251 76.8836 10.2151 76.7812 10.105V10.1037C76.7116 10.0316 76.642 9.95953 76.5712 9.88869C76.427 9.74574 76.2764 9.60659 76.1183 9.46997C75.4491 8.89438 74.6977 8.42632 74.0588 7.85074C74.0209 7.81785 73.9829 7.78369 73.9462 7.74827C73.9096 7.71412 73.8729 7.67996 73.8375 7.64327C73.8223 7.62936 73.8071 7.61418 73.7932 7.599C73.7363 7.54207 73.6806 7.48388 73.6275 7.42442C73.5591 7.34979 73.4934 7.27262 73.4314 7.19293C73.3985 7.15244 73.3681 7.11323 73.339 7.07148C73.3074 7.031 73.2783 6.98926 73.2505 6.94625C73.1923 6.86149 73.1379 6.7742 73.086 6.68312C73.0671 6.65023 73.0493 6.61734 73.0329 6.58318C73.0228 6.56674 73.0139 6.55029 73.0063 6.53385C72.9861 6.4959 72.9671 6.45795 72.9507 6.41873C72.9456 6.40988 72.9418 6.40228 72.9393 6.39343C72.9178 6.34915 72.8975 6.30361 72.8798 6.25681C72.876 6.25048 72.8735 6.24416 72.8722 6.23783C72.852 6.19229 72.8343 6.14549 72.8191 6.09741C72.8166 6.09362 72.8153 6.09109 72.8153 6.08729C72.7963 6.03796 72.7799 5.98736 72.7634 5.93549C72.7609 5.92537 72.7571 5.91525 72.7533 5.9064V5.90513C72.747 5.89122 72.7394 5.8773 72.7318 5.86339C72.723 5.84947 72.7141 5.83556 72.704 5.82164C72.6901 5.80393 72.6762 5.78622 72.6597 5.76977C72.6496 5.75839 72.6395 5.74827 72.6281 5.73815C72.618 5.72803 72.6066 5.71664 72.5952 5.70652C72.561 5.67616 72.5256 5.6458 72.4889 5.6167C72.4535 5.58887 72.4181 5.55978 72.3852 5.53195C72.1423 5.32448 71.8893 5.17142 71.6325 5.06769C71.6325 5.06769 71.6325 5.06769 71.6313 5.06769C71.191 4.89311 70.7419 4.87034 70.3245 4.99178C70.2815 5.00443 70.2385 5.01961 70.1954 5.0348C69.7261 5.20937 69.3049 5.57243 68.9937 6.11386C68.9026 6.27325 68.8153 6.43391 68.6863 6.66541C68.6584 6.59836 68.6319 6.53511 68.604 6.4706V6.46933C68.5497 6.34156 68.4953 6.22012 68.4409 6.10121C68.3865 5.9823 68.3333 5.86845 68.2789 5.75839C68.2258 5.6496 68.1714 5.5446 68.1183 5.4434C68.0917 5.3928 68.0639 5.34472 68.0373 5.29665C68.0108 5.24858 67.9842 5.20178 67.9564 5.15624C67.9298 5.1107 67.902 5.06515 67.8754 5.02214C67.8286 4.94624 67.7805 4.87287 67.7325 4.8033C67.6844 4.73372 67.6363 4.66794 67.5882 4.60469C67.4921 4.47945 67.3934 4.36686 67.2935 4.26566C67.2404 4.21253 67.186 4.16193 67.1316 4.11512C67.1037 4.09235 67.0759 4.06958 67.0493 4.04808C67.0253 4.0291 67.0013 4.01139 66.9772 3.99495C66.9127 3.94814 66.8482 3.90766 66.7824 3.87097C66.7571 3.85706 66.7331 3.84441 66.7078 3.83176C66.6825 3.81911 66.6559 3.80646 66.6306 3.79507C66.623 3.79128 66.6154 3.78875 66.6078 3.78495C66.5876 3.7761 66.5674 3.76851 66.5471 3.76092C66.5319 3.75459 66.518 3.74953 66.5028 3.74447C66.4826 3.73688 66.4624 3.73056 66.4421 3.72423C66.4396 3.72297 66.4371 3.7217 66.4345 3.7217C66.4042 3.71158 66.3751 3.70399 66.3447 3.6964C66.3144 3.68881 66.2853 3.68122 66.2536 3.67616C66.2498 3.67489 66.2448 3.67363 66.2397 3.67363C66.2119 3.6673 66.1828 3.66224 66.1537 3.65845C65.6148 3.58002 64.9937 3.7217 64.2321 4.04934H64.2309C64.1866 3.9494 64.1423 3.852 64.0968 3.75712C63.9602 3.47249 63.8185 3.21316 63.6743 2.97787C63.6186 2.88805 63.5629 2.80203 63.5073 2.7198C63.4364 2.61607 63.3656 2.51993 63.2947 2.42758C63.2226 2.33523 63.1505 2.24921 63.0772 2.16952C63.0481 2.13789 63.019 2.10627 62.9899 2.0759C62.9304 2.01392 62.871 1.95699 62.8115 1.9026C62.7811 1.87603 62.752 1.85073 62.7217 1.82543C62.6433 1.75965 62.5636 1.70019 62.4851 1.64706C62.246 1.4864 62.0032 1.38141 61.7577 1.33207C61.6312 1.30677 61.506 1.29538 61.3795 1.30044C61.3656 1.30044 61.3504 1.30044 61.3365 1.30171C61.3163 1.30297 61.296 1.30424 61.2758 1.30677C61.2505 1.3093 61.2252 1.31183 61.1999 1.31562C61.1746 1.31942 61.148 1.32321 61.1227 1.32827C61.0974 1.33207 61.0734 1.33713 61.0481 1.34346C61.0215 1.34978 60.9949 1.35611 60.9696 1.3637C60.9178 1.37761 60.8659 1.39532 60.8153 1.4143C60.7343 1.44592 60.6521 1.48261 60.5711 1.52562C60.5547 1.53447 60.537 1.54333 60.5205 1.55345C60.499 1.56357 60.4788 1.57622 60.4586 1.58887C60.413 1.6167 60.3675 1.6458 60.3207 1.67869C60.2979 1.69387 60.2751 1.70905 60.2524 1.72676C60.2372 1.73814 60.222 1.74953 60.2068 1.76091C60.1765 1.78368 60.1474 1.80772 60.117 1.83302C60.0866 1.85705 60.0563 1.88362 60.0272 1.91019C59.9981 1.93549 59.9703 1.96079 59.9424 1.98735C59.9108 2.01771 59.8792 2.04807 59.8476 2.0797C59.8083 2.12018 59.7691 2.16066 59.7312 2.20367C59.692 2.24668 59.6527 2.29096 59.6135 2.33776C59.573 2.38331 59.5351 2.43138 59.4959 2.48071V2.48198C59.0076 2.23656 58.5408 1.90133 58.074 1.6711C57.9108 1.5914 57.7476 1.52435 57.5832 1.47755C57.5237 1.46237 57.4655 1.44845 57.4061 1.43707C57.3466 1.42695 57.2871 1.41936 57.2277 1.41556C56.8305 1.389 56.4231 1.54459 56.0474 1.72296C56.0474 1.72296 56.0474 1.72296 56.0462 1.72423C55.74 1.8697 55.4567 2.03163 55.2201 2.12271C54.4876 1.43074 53.7312 0.716003 52.9734 0H51.6287C51.5022 0.115117 51.377 0.231499 51.2505 0.346616C51.167 0.422518 51.0847 0.497154 51.0025 0.573056C50.8962 0.670462 50.7913 0.766604 50.6863 0.862746C50.5623 0.976598 50.4396 1.08792 50.3181 1.19924C50.2574 1.2549 50.1967 1.31056 50.1372 1.36496L50.136 1.36623C50.0158 1.26629 49.8893 1.16003 49.7577 1.05123C49.6262 0.942442 49.4908 0.829856 49.3517 0.713473C49.2125 0.598356 49.0708 0.480709 48.9279 0.360532C48.7837 0.241619 48.6394 0.120177 48.494 0H47.1505C46.9064 0.213789 46.6609 0.427578 46.4168 0.641367C46.1727 0.855156 45.9272 1.06895 45.6818 1.284C45.5578 1.18786 45.4288 1.08919 45.2947 0.984188C45.2277 0.932322 45.1594 0.879192 45.0898 0.827326C45.0215 0.774195 44.9519 0.721064 44.8811 0.666668C44.6002 0.450349 44.308 0.225174 44.0158 0H42.6723C42.0246 0.375712 41.3769 0.750159 40.7292 1.12587H40.728C40.8886 1.28906 41.0468 1.44972 41.2087 1.61291L41.21 1.61417H41.2112V1.61544C40.537 1.41809 40.0727 1.3093 39.6793 1.32701C39.6262 1.32954 39.5755 1.3346 39.5249 1.34093C39.5199 1.34219 39.5161 1.34219 39.5123 1.34346C39.487 1.34725 39.4617 1.35105 39.4364 1.35611C39.4111 1.36117 39.3845 1.36749 39.3592 1.37382C39.3567 1.37382 39.3542 1.37508 39.3529 1.37508C39.3289 1.38141 39.3048 1.38773 39.2821 1.39532C39.2568 1.40291 39.2315 1.41177 39.2074 1.42062C39.1821 1.42948 39.1556 1.4396 39.1303 1.45098C39.1113 1.45984 39.0936 1.46869 39.0746 1.47628C39.0379 1.49399 39.0012 1.51297 38.9645 1.53194C38.7988 1.62429 38.628 1.74953 38.4396 1.91019C38.3991 1.94561 38.3561 1.98229 38.3131 2.02151C38.2903 2.04175 38.2688 2.06199 38.246 2.08223C38.2245 2.10247 38.203 2.12271 38.1802 2.14421C38.1575 2.16572 38.1334 2.18723 38.1107 2.21C38.0398 2.27704 37.9664 2.34788 37.8893 2.42505C37.864 2.45035 37.8399 2.47439 37.8134 2.50095L37.8121 2.50222V2.50095C37.7628 2.45035 37.7147 2.40228 37.6679 2.35421C37.6198 2.3074 37.5718 2.2606 37.5249 2.21632C37.4301 2.12904 37.3365 2.04681 37.2428 1.96964C37.196 1.93296 37.1492 1.89627 37.1024 1.86085C37.0101 1.79254 36.919 1.72929 36.8279 1.67236C36.7773 1.64074 36.7254 1.61038 36.6761 1.58255C36.4737 1.47249 36.2764 1.39279 36.0841 1.34599C36.0588 1.33966 36.036 1.3346 36.012 1.32954C35.9677 1.32069 35.9234 1.31309 35.8804 1.30677C35.8678 1.3055 35.8564 1.30424 35.8437 1.30297C35.8083 1.29918 35.7716 1.29665 35.7362 1.29412H35.7172C35.6122 1.29032 35.5098 1.29665 35.4098 1.31183C35.3681 1.31816 35.3276 1.32701 35.2871 1.33586C35.2466 1.34599 35.2062 1.35737 35.1669 1.37002C35.1214 1.3852 35.0759 1.40165 35.0316 1.42062C34.9873 1.4396 34.943 1.45984 34.8988 1.48261C34.833 1.51803 34.7672 1.55598 34.7027 1.60026C34.6812 1.61544 34.6584 1.63062 34.6369 1.64706C34.6053 1.66983 34.5736 1.69387 34.542 1.72043C34.5104 1.74573 34.48 1.7723 34.4484 1.80013C34.4269 1.8191 34.4067 1.83808 34.3852 1.85832C34.3649 1.87856 34.3447 1.8988 34.3244 1.91904C34.2941 1.95067 34.2637 1.98229 34.2334 2.01645C34.2043 2.04934 34.1739 2.08349 34.1435 2.11891V2.12018C34.055 2.22644 33.9677 2.34409 33.8829 2.47186C33.8551 2.5136 33.826 2.55788 33.7982 2.60215C33.7704 2.64769 33.7425 2.69324 33.716 2.74004C33.6881 2.78685 33.6603 2.83492 33.6337 2.88425V2.88552C33.5515 2.87919 33.4705 2.87034 33.3896 2.86022C33.3478 2.85516 33.3074 2.8501 33.2669 2.84504C33.1859 2.83492 33.1062 2.82227 33.0253 2.80962H33.024C33.024 2.80962 33.024 2.80962 33.0227 2.80962C32.943 2.79697 32.8633 2.78432 32.7849 2.7704C32.7444 2.76534 32.7039 2.75775 32.6647 2.75143C32.6635 2.75269 32.6635 2.75269 32.6635 2.75143C32.604 2.74257 32.5445 2.73245 32.4864 2.7236C32.4294 2.71601 32.3712 2.70715 32.3143 2.69956H32.313C32.265 2.69324 32.2169 2.68691 32.1701 2.68185C32.0904 2.67299 32.0107 2.66667 31.9335 2.66161C31.9108 2.66035 31.888 2.65908 31.8652 2.65908C31.5958 2.64896 31.3428 2.673 31.1151 2.76155C30.8823 2.85263 30.6774 3.01329 30.4851 3.21063C30.4686 3.22834 30.4509 3.24605 30.4332 3.26503C30.2612 3.44972 30.098 3.66224 29.9361 3.87603C29.8715 3.96079 29.807 4.04555 29.7413 4.12904C29.6426 4.25554 29.5426 4.37698 29.4389 4.49083C29.3478 4.4124 29.258 4.33777 29.1695 4.26946C29.0809 4.19988 28.9936 4.13536 28.9076 4.07591C28.8481 4.03416 28.7887 3.99621 28.7305 3.96079C28.7039 3.94308 28.6786 3.9279 28.6533 3.91272C28.6318 3.90007 28.6103 3.88868 28.5901 3.87603C28.5698 3.86465 28.5496 3.85326 28.5281 3.84188C28.4459 3.7976 28.3636 3.75712 28.2839 3.7217C28.2435 3.70399 28.203 3.68754 28.1638 3.67236C28.1246 3.65845 28.0853 3.64453 28.0461 3.63188C28.0221 3.62429 27.9968 3.6167 27.9728 3.61038C27.9487 3.60279 27.9247 3.59646 27.9006 3.5914C27.8766 3.58508 27.8526 3.58002 27.8285 3.57496C27.8045 3.5699 27.7805 3.5661 27.7577 3.56231C27.7337 3.55851 27.7096 3.55472 27.6869 3.55092C27.64 3.54586 27.5932 3.54207 27.5464 3.53954C27.4414 3.53448 27.339 3.5408 27.2378 3.55598C27.1227 3.57496 27.0088 3.60532 26.8975 3.64833C26.895 3.65086 26.8912 3.65212 26.8886 3.65212C26.8507 3.66857 26.8127 3.68501 26.7748 3.70273C26.6989 3.73941 26.6242 3.78242 26.5496 3.83176C26.5294 3.84567 26.5091 3.85959 26.4889 3.8735C26.4686 3.88868 26.4484 3.9026 26.4294 3.91778C26.4092 3.93296 26.3889 3.9494 26.3687 3.96585C26.3485 3.98103 26.3295 3.99747 26.3092 4.01519C26.2814 4.03922 26.2548 4.06326 26.227 4.08856C26.222 4.09362 26.2169 4.09868 26.2118 4.10247C26.1891 4.12398 26.1663 4.14675 26.1448 4.16825C26.1005 4.21253 26.0562 4.25933 26.012 4.30867C26.0018 4.32006 25.9905 4.33271 25.9803 4.34409C25.9247 4.40734 25.869 4.47565 25.8146 4.54776C25.783 4.58698 25.7526 4.62872 25.721 4.67047C25.6957 4.70589 25.6704 4.74257 25.6451 4.77926C25.6147 4.82354 25.5844 4.86908 25.554 4.91588C25.4667 5.04871 25.3807 5.18913 25.296 5.34093C25.2947 5.34093 25.2947 5.34219 25.2947 5.34219C25.1302 5.27262 24.9721 5.21063 24.8203 5.1575C23.7248 4.7742 22.9822 4.83492 22.4294 5.42695C22.3965 5.46237 22.3636 5.50032 22.3307 5.5408C22.313 5.56358 22.2953 5.58635 22.2776 5.61038C22.246 5.65213 22.2144 5.6964 22.184 5.74321C21.9905 6.03922 21.8209 6.42 21.6691 6.88679C21.6451 6.95763 21.6223 7.02847 21.6008 7.10311C21.5781 7.17774 21.5566 7.25365 21.5338 7.33208V7.33334C21.0164 7.2372 20.5673 7.19925 20.1713 7.22961C20.0373 7.23973 19.9082 7.25871 19.7855 7.28527C19.7058 7.30298 19.6287 7.32322 19.554 7.34852C19.5439 7.35105 19.535 7.35485 19.5249 7.35738C19.4174 7.39533 19.3149 7.43961 19.2163 7.49147C19.1808 7.50918 19.1467 7.52942 19.1125 7.54966C19.0784 7.5699 19.0455 7.59141 19.0126 7.61418C19.0126 7.61418 19.0126 7.61418 19.0113 7.61544C18.9784 7.63821 18.9455 7.66098 18.9139 7.68628C18.881 7.71032 18.8494 7.73688 18.819 7.76345C18.7874 7.79002 18.7558 7.81911 18.7254 7.84821C18.6963 7.87604 18.666 7.9064 18.6369 7.93676L18.6356 7.93802C18.5888 7.98736 18.542 8.04049 18.4965 8.09615C18.4939 8.09868 18.4914 8.10248 18.4889 8.10501C18.4497 8.15308 18.4117 8.20368 18.3737 8.25808C18.3687 8.26187 18.3662 8.26693 18.3624 8.27199C18.3194 8.33271 18.2763 8.39723 18.2333 8.46427C18.1916 8.53132 18.1498 8.60216 18.1094 8.67553C18.0271 8.82228 17.9487 8.9804 17.8715 9.15245C17.8665 9.16383 17.8614 9.17395 17.8576 9.18407C17.8437 9.21317 17.8311 9.241 17.8171 9.26756C17.7083 9.48262 17.5856 9.65213 17.4427 9.79381C17.425 9.81152 17.406 9.82923 17.387 9.84694C17.3402 9.88996 17.2909 9.93044 17.239 9.96712C17.22 9.9823 17.2011 9.99622 17.1808 10.0089C17.1517 10.0291 17.1226 10.0493 17.0923 10.0671C17.0619 10.0873 17.0303 10.105 16.9974 10.124C16.9645 10.143 16.9316 10.1607 16.8987 10.1771C16.7963 10.2302 16.6875 10.2796 16.5711 10.3302C16.5331 10.3466 16.4965 10.3631 16.4598 10.3821C16.3864 10.42 16.3143 10.4643 16.2447 10.5123C16.2169 10.5313 16.1903 10.5516 16.1625 10.5731C16.1321 10.5946 16.1018 10.6186 16.0727 10.6426C16.0233 10.6831 15.974 10.7261 15.9272 10.7691C15.8551 10.8349 15.7842 10.9032 15.7134 10.9728C15.6679 11.0184 15.6211 11.0652 15.5743 11.112C15.5135 11.1752 15.4515 11.2397 15.3883 11.3005C15.3567 11.3333 15.325 11.365 15.2934 11.3953C15.2618 11.4257 15.2302 11.4548 15.1985 11.4852C15.1985 11.4852 15.1985 11.4852 15.1973 11.4864C15.1657 11.5155 15.1328 11.5446 15.1011 11.5737C15.0682 11.6028 15.0354 11.6294 15.0025 11.6572L15.0012 11.6585C14.9658 11.6876 14.9291 11.7179 14.8924 11.7495C14.8671 11.7698 14.8418 11.7913 14.8165 11.8141C14.8051 11.8229 14.7925 11.833 14.7811 11.8432C14.7292 11.8874 14.6774 11.9304 14.6242 11.9747H14.623C14.5799 12.0101 14.5369 12.0443 14.4927 12.0759C14.4484 12.1088 14.4041 12.1392 14.3586 12.167C14.3143 12.1948 14.2687 12.2201 14.2232 12.2429C14.1777 12.2657 14.1309 12.2846 14.0853 12.2986C14.0385 12.3137 13.9917 12.3239 13.9449 12.3302C13.0037 12.4466 12.3004 12.6477 11.7729 13.0019C11.2858 13.3296 10.9481 13.7888 10.7115 14.4327C10.5723 14.8071 10.4686 15.2461 10.3889 15.7571C10.3712 15.8748 10.3522 15.9924 10.3333 16.1101C10.3143 16.2277 10.2953 16.3454 10.2763 16.463C10.2536 16.5971 10.2321 16.7312 10.2106 16.8666C10.2055 16.8957 10.2004 16.926 10.1954 16.9551C10.1827 17.0272 10.1713 17.0993 10.16 17.1714V17.1727C9.92213 17.1196 9.70454 17.0791 9.50593 17.05C9.50593 17.05 9.50593 17.05 9.50467 17.05C9.02269 16.9829 8.65078 16.9943 8.36741 17.0993C8.06001 17.2144 7.85761 17.4421 7.73237 17.8065C7.72225 17.8381 7.71086 17.8697 7.70201 17.9039C7.69189 17.9368 7.68304 17.9722 7.67418 18.0076C7.66785 18.0316 7.66279 18.0557 7.65773 18.0797C7.65141 18.105 7.64761 18.1291 7.64255 18.1556C7.63749 18.1809 7.63243 18.2075 7.62864 18.2341C7.62105 18.2872 7.61346 18.3416 7.60587 18.3985C7.59954 18.4554 7.59322 18.5149 7.58816 18.5756C7.57171 18.759 7.56286 18.9602 7.56159 19.179C7.55274 20.1366 7.68936 21.0955 7.75894 22.0279V22.0291C7.71087 22.0506 7.66279 22.0721 7.61599 22.0936C7.56918 22.1164 7.52238 22.1379 7.47557 22.1594C7.29088 22.2467 7.11504 22.334 6.94679 22.4225C6.90378 22.4453 6.8633 22.4668 6.82155 22.4896C6.78107 22.5124 6.74059 22.5339 6.70011 22.5566C6.57108 22.6287 6.44837 22.7009 6.33072 22.7742C6.32566 22.778 6.31934 22.7805 6.31428 22.7843C6.26115 22.8172 6.20928 22.8501 6.15868 22.8843H6.15742C6.04356 22.9589 5.93604 23.0336 5.83357 23.1095C5.72731 23.1879 5.62611 23.2676 5.53123 23.3485C5.48822 23.3852 5.44647 23.4219 5.40599 23.4586C5.36172 23.4978 5.3187 23.5383 5.27696 23.5788C5.23648 23.618 5.196 23.6585 5.15678 23.7002C5.11757 23.7407 5.07962 23.7824 5.04293 23.8242C5.03534 23.8318 5.02775 23.8406 5.02142 23.8482C4.99233 23.8811 4.9645 23.9153 4.93667 23.9494C4.90378 23.9912 4.87089 24.0329 4.84053 24.0747C4.838 24.0759 4.83673 24.0772 4.83673 24.0797C4.80637 24.1202 4.77727 24.1607 4.74944 24.2012C4.74818 24.2024 4.74691 24.205 4.74565 24.2075C4.71655 24.2518 4.68746 24.296 4.66089 24.3403C4.63306 24.3846 4.60776 24.4301 4.58246 24.4757C4.58246 24.4757 4.5812 24.4757 4.5812 24.4769C4.55716 24.5225 4.53439 24.568 4.51162 24.6136C4.47873 24.6831 4.4471 24.754 4.41801 24.8248C4.38891 24.8969 4.36361 24.969 4.34084 25.0424C4.32946 25.0791 4.31807 25.117 4.30795 25.1537C4.30416 25.1664 4.30036 25.179 4.29783 25.1917C4.29277 25.2081 4.28771 25.2258 4.28392 25.2423C4.27886 25.26 4.27506 25.2777 4.27126 25.2967C4.26747 25.3119 4.26367 25.327 4.26114 25.3435C4.25861 25.3536 4.25608 25.3637 4.25355 25.3751C4.2447 25.4156 4.23711 25.4573 4.23079 25.4991C4.22193 25.5509 4.21434 25.6041 4.20801 25.6572C4.20169 25.7103 4.19663 25.7635 4.19157 25.8179C4.18777 25.8659 4.18398 25.9153 4.18271 25.9646C4.18145 25.9735 4.18145 25.9823 4.18145 25.9912V26.0076C4.17892 26.062 4.17765 26.1164 4.17765 26.1708C4.17765 26.205 4.17765 26.2404 4.18018 26.2758C4.18018 26.2961 4.18018 26.3176 4.18145 26.3378C4.18145 26.3454 4.18145 26.353 4.18271 26.3606C4.18271 26.3745 4.18398 26.3871 4.18524 26.401C4.18651 26.439 4.18904 26.4769 4.19157 26.5162C4.19283 26.5301 4.1941 26.544 4.19536 26.5579C4.19789 26.5908 4.20169 26.625 4.20548 26.6591C4.20675 26.6806 4.20928 26.7021 4.21181 26.7249V26.7325C4.2156 26.7515 4.21687 26.7704 4.22066 26.7907C4.22572 26.835 4.23205 26.8792 4.23837 26.9248C4.2447 26.9703 4.25102 27.0146 4.25988 27.0614C4.26747 27.1069 4.27506 27.1525 4.28392 27.198C4.29024 27.2322 4.29657 27.2651 4.30163 27.2979C4.30542 27.3144 4.30795 27.3296 4.31048 27.3448C4.31301 27.3612 4.31554 27.3789 4.31807 27.3954C4.32313 27.4257 4.32819 27.4561 4.33199 27.4852V27.489C4.33705 27.5206 4.34084 27.551 4.34337 27.5813C4.34717 27.6117 4.35096 27.6408 4.35223 27.6699C4.35223 27.6711 4.35223 27.6711 4.35223 27.6711C4.35602 27.7002 4.35729 27.7281 4.35855 27.7572C4.36361 27.8419 4.36488 27.9229 4.36235 28.0013C4.35729 28.1392 4.33958 28.2682 4.30669 28.3884C4.30036 28.4124 4.29403 28.4352 4.28644 28.4592C4.27885 28.4833 4.27 28.506 4.26114 28.5288C4.25229 28.5516 4.24343 28.5731 4.23331 28.5959C4.19536 28.6794 4.14982 28.7603 4.0929 28.8362C4.08404 28.8489 4.07519 28.8603 4.06507 28.8729C4.04862 28.8957 4.03091 28.9172 4.01193 28.9387C3.98663 28.9678 3.9588 28.9969 3.92971 29.0247V29.026C3.89808 29.0576 3.86772 29.0854 3.8323 29.1158L3.83104 29.1171C3.79688 29.1461 3.76146 29.1752 3.72224 29.2043C3.70327 29.2183 3.68429 29.2334 3.66405 29.2473C3.62357 29.2752 3.58183 29.3043 3.53755 29.3321C3.51605 29.346 3.49327 29.3599 3.4705 29.3739C3.4237 29.4017 3.37563 29.4282 3.32629 29.4561C3.27569 29.4826 3.22383 29.5105 3.16943 29.537C2.81902 29.7103 2.53692 29.909 2.3206 30.1278C2.17639 30.2733 2.06127 30.4289 1.97651 30.5908C1.94489 30.6515 1.91706 30.7135 1.89176 30.7755C1.807 30.9969 1.77284 31.2296 1.78676 31.4725C1.79182 31.5408 1.79941 31.6104 1.81079 31.6813C1.83483 31.8229 1.87404 31.9684 1.93097 32.1152C1.97272 32.224 2.02205 32.3353 2.08277 32.4466V32.4479C2.11313 32.5035 2.14476 32.5604 2.17892 32.6161C2.19536 32.6439 2.21307 32.6718 2.23078 32.7009H2.23205C2.23964 32.7148 2.24976 32.7287 2.25861 32.7439C2.26747 32.7578 2.27632 32.7717 2.28771 32.7856C2.30542 32.8135 2.32566 32.8425 2.3459 32.8716C2.36614 32.8995 2.38638 32.9286 2.40789 32.9564H2.40915C2.41927 32.9703 2.42939 32.9855 2.44078 32.9994C2.4509 33.0133 2.46228 33.0272 2.47493 33.0412C2.49644 33.0703 2.51921 33.0993 2.54324 33.1284C2.57993 33.1727 2.61661 33.217 2.65583 33.2613C2.73173 33.3486 2.8089 33.4346 2.89112 33.5206C2.93287 33.5649 2.97335 33.6079 3.01636 33.6522V33.6534C3.10112 33.7407 3.18714 33.8293 3.27443 33.9203C3.3187 33.9672 3.36298 34.0127 3.40852 34.0608L3.47683 34.1329C3.49834 34.1569 3.52111 34.1809 3.54388 34.205H3.54514V34.2062C2.9063 34.1544 2.38258 34.1405 1.95248 34.1771C1.78929 34.1911 1.63875 34.2126 1.50086 34.2404C1.45406 34.2505 1.40978 34.2606 1.36677 34.272C1.32376 34.2834 1.28075 34.2961 1.24027 34.3087C1.21244 34.3176 1.18714 34.3264 1.16057 34.3365C1.13401 34.3454 1.10871 34.3555 1.08467 34.3656C1.04292 34.3833 1.00244 34.4011 0.964493 34.4213C0.948047 34.4289 0.931601 34.4377 0.916421 34.4453C0.87847 34.4668 0.843051 34.4883 0.808895 34.5111C0.788655 34.525 0.768415 34.5389 0.748175 34.5529C0.727934 34.568 0.707694 34.5832 0.688718 34.5984C0.649503 34.63 0.614081 34.6629 0.57866 34.6983C0.56095 34.716 0.544505 34.7338 0.529324 34.7515C0.512879 34.7692 0.496435 34.7882 0.481255 34.8084C0.467339 34.8248 0.453422 34.8413 0.442037 34.859C0.378786 34.9425 0.323127 35.0336 0.273791 35.1348C0.261141 35.1588 0.249754 35.1828 0.238368 35.2081C0.238368 35.2094 0.238369 35.2094 0.237104 35.2107C0.226984 35.236 0.215599 35.2613 0.205478 35.2866C0.194093 35.3131 0.182709 35.341 0.172589 35.3688C0.142228 35.4498 0.116927 35.5282 0.095422 35.6054C0.0865668 35.6345 0.0789757 35.6623 0.0726505 35.6914C0.0675904 35.7116 0.0625303 35.7306 0.0587352 35.7508C0.0435549 35.8154 0.0321699 35.8773 0.0233147 35.9381C0.0182546 35.9735 0.0131957 36.0102 0.0106656 36.0443C0.00687053 36.0797 0.00433886 36.1139 0.00307384 36.1481C-0.0121064 36.463 0.0435563 36.7426 0.151083 36.9994C0.164999 37.0336 0.180179 37.0665 0.196624 37.0994C0.214335 37.1386 0.234574 37.1765 0.254814 37.2145C0.28138 37.2613 0.309211 37.3056 0.337042 37.3511C0.352222 37.3751 0.367402 37.3992 0.383847 37.4219C0.396497 37.4409 0.410412 37.4599 0.423063 37.4776C0.439508 37.5016 0.458483 37.5257 0.476193 37.5497C0.497699 37.5788 0.520469 37.6079 0.54324 37.6357C0.611551 37.7205 0.684922 37.8027 0.762088 37.8837V37.8849C0.967022 38.1012 1.19473 38.3062 1.4237 38.5099C1.48189 38.5605 1.53881 38.6111 1.59574 38.6629C1.73742 38.7907 1.87784 38.9185 2.01067 39.05L2.01193 39.0513C1.74248 39.1613 1.50086 39.2878 1.28834 39.4257C1.28834 39.4257 1.28834 39.427 1.28707 39.427C1.10491 39.5472 0.944252 39.6762 0.803834 39.8128C0.524264 40.0873 0.330716 40.3947 0.226984 40.7199C0.211803 40.7679 0.197889 40.816 0.186504 40.8641C0.176384 40.9096 0.167528 40.9551 0.159937 41.0007C0.158672 41.0045 0.157407 41.007 0.157407 41.0108C0.157407 41.0146 0.157408 41.0184 0.156143 41.0222C0.148552 41.0677 0.143493 41.1133 0.140963 41.1588C0.140963 41.1588 0.139697 41.1588 0.139697 41.1601C0.133372 41.2436 0.132107 41.3296 0.135902 41.4156C0.137167 41.4232 0.137167 41.4295 0.138432 41.4371C0.138432 41.446 0.138432 41.4548 0.139697 41.4637C0.140962 41.489 0.143493 41.5143 0.147288 41.5409C0.148553 41.5484 0.148553 41.5573 0.151083 41.5662C0.151083 41.575 0.152347 41.5839 0.153612 41.5927C0.156142 41.6104 0.159937 41.6281 0.163732 41.6471C0.164997 41.6636 0.167527 41.6787 0.171322 41.6952C0.171322 41.6977 0.172589 41.7015 0.172589 41.704C0.181444 41.7445 0.190299 41.785 0.200419 41.8255V41.8267C0.221925 41.9128 0.249754 42.0001 0.283909 42.0861C0.285174 42.0911 0.287705 42.0949 0.28897 42.1C0.305416 42.1392 0.320596 42.1784 0.338306 42.2176V42.2189C0.354752 42.2569 0.372461 42.2961 0.392701 42.334C0.397761 42.3467 0.404087 42.3581 0.410412 42.3694C0.425592 42.3998 0.442038 42.4289 0.461014 42.4593C0.464809 42.4656 0.468603 42.4732 0.472399 42.4795V42.4808C0.495169 42.5187 0.51794 42.5567 0.541975 42.5946C0.552095 42.6111 0.562216 42.6275 0.573601 42.6439C0.595106 42.6768 0.617877 42.7085 0.640647 42.7414C0.640647 42.7414 0.639382 42.7414 0.640647 42.7426C0.672273 42.7856 0.705164 42.8286 0.738054 42.8717V42.8729C0.7798 42.926 0.822811 42.9792 0.868352 43.031C0.888592 43.0538 0.908831 43.0766 0.930337 43.0994C0.939192 43.1095 0.949312 43.1183 0.958167 43.1285V43.1297C1.0366 43.2157 1.12136 43.3005 1.21244 43.384C1.51857 43.6661 1.84621 43.9229 2.18651 44.1696C2.33198 44.2771 2.47999 44.3821 2.628 44.4858C2.82534 44.625 3.02395 44.7654 3.22256 44.9083C3.32123 44.9805 3.4199 45.0526 3.51731 45.1247C3.51731 45.1259 3.51858 45.1259 3.51858 45.1259C3.48316 45.1398 3.44773 45.1538 3.41358 45.1664C3.37942 45.1791 3.34527 45.193 3.31238 45.2044C3.14539 45.2689 2.99106 45.3258 2.84179 45.3878C2.81143 45.4004 2.78107 45.4131 2.75197 45.4257C2.21181 45.6648 1.79814 45.9229 1.51098 46.2063C1.45279 46.2619 1.39966 46.3201 1.35286 46.3783C1.25798 46.4959 1.18334 46.6174 1.13021 46.7426C1.12136 46.7629 1.1125 46.7844 1.10491 46.8059C1.09732 46.8274 1.08973 46.8489 1.08341 46.8704C0.975878 47.2107 1.01003 47.5839 1.18587 47.9963V47.9975C1.20358 48.038 1.22256 48.0798 1.2428 48.1215C1.26051 48.1582 1.27948 48.1949 1.29972 48.2328C1.30352 48.2417 1.30858 48.2505 1.3149 48.2607C1.32629 48.2834 1.34021 48.3062 1.35286 48.3302C1.35792 48.3378 1.36171 48.3454 1.36677 48.353C1.37183 48.3619 1.37689 48.3694 1.38069 48.3783H1.38195C1.38954 48.3922 1.3984 48.4074 1.40852 48.4226C1.42496 48.4517 1.44394 48.4808 1.46291 48.5099H1.46418C1.46924 48.52 1.47683 48.5301 1.48442 48.5415C1.50592 48.5756 1.52869 48.6098 1.55273 48.644H1.55399C1.55905 48.6516 1.56412 48.6591 1.57044 48.668C1.61345 48.7287 1.65899 48.792 1.70833 48.8552C1.72477 48.8767 1.74122 48.8982 1.76019 48.9197C1.76399 48.9261 1.76905 48.9324 1.77411 48.9387C1.807 48.9792 1.83989 49.0209 1.87531 49.0627C1.90947 49.1032 1.94362 49.1424 1.97904 49.1829V49.1841C2.0132 49.2246 2.04862 49.2638 2.08404 49.303C2.15488 49.3815 2.22699 49.4599 2.30162 49.5358C2.42307 49.6636 2.5483 49.7875 2.67481 49.9115C2.85191 50.0861 3.03028 50.2581 3.20865 50.4289C3.36171 50.5757 3.51225 50.7224 3.66026 50.8704C3.64128 50.9248 3.62104 50.9792 3.60207 51.0323C3.57297 51.112 3.54514 51.1905 3.51858 51.2664H3.51731C3.5034 51.3043 3.49075 51.3423 3.47683 51.3802C3.46291 51.4169 3.449 51.4548 3.43635 51.4915L3.43508 51.4928C3.40472 51.5788 3.37436 51.6636 3.34653 51.7483C3.30732 51.8584 3.27063 51.9672 3.23648 52.076C3.18841 52.229 3.14539 52.3783 3.10618 52.5238C3.08973 52.5845 3.07455 52.644 3.06064 52.7034C3.05178 52.7363 3.04419 52.7705 3.0366 52.8034C3.02269 52.8653 3.00877 52.9273 2.99739 52.9881C2.98347 53.0526 2.97209 53.1158 2.9607 53.1778C2.94299 53.2815 2.92781 53.3827 2.91516 53.4827C2.91263 53.5017 2.9101 53.5219 2.90883 53.5409C2.87468 53.8344 2.86582 54.1139 2.8848 54.3796C2.88859 54.4251 2.89239 54.4707 2.89618 54.5149C2.90124 54.5605 2.9063 54.6048 2.91263 54.649C2.92401 54.7376 2.9392 54.8249 2.95944 54.9096C2.98727 55.0374 3.02269 55.1614 3.0657 55.2828C3.09353 55.3638 3.12515 55.4422 3.16184 55.5206C3.17955 55.5598 3.19726 55.5978 3.2175 55.6357C3.23521 55.6724 3.25419 55.7091 3.27443 55.7445C3.27696 55.7521 3.28075 55.7585 3.28581 55.7635C3.30352 55.7964 3.3225 55.8293 3.34274 55.8609C3.35792 55.8862 3.37436 55.9128 3.39081 55.9381C3.42497 55.9887 3.45912 56.0393 3.4958 56.0886C3.51478 56.1127 3.53376 56.138 3.55273 56.162C3.56159 56.1746 3.57171 56.1873 3.58309 56.1999C3.60713 56.229 3.63116 56.2581 3.6552 56.286C3.71339 56.3543 3.77664 56.4213 3.84242 56.4871H3.84369C3.90947 56.5541 3.97778 56.6174 4.05115 56.6807C4.12452 56.7439 4.20169 56.8059 4.28265 56.8666H4.28392C4.36488 56.9286 4.44837 56.9881 4.53692 57.045C4.5812 57.0741 4.62547 57.1032 4.67101 57.1323C4.80764 57.2183 4.95438 57.3018 5.10871 57.3827C5.21118 57.4371 5.31871 57.4903 5.42876 57.5421C7.34401 58.4416 8.91517 59.6851 10.3219 61.0943C11.2858 62.0595 12.1726 63.1019 13.0391 64.1658C13.2567 64.4315 13.4718 64.6984 13.6868 64.9653V64.9666C13.7944 65.0994 13.9019 65.2335 14.0082 65.3663C14.0094 65.3676 14.0094 65.3676 14.0094 65.3676C14.3333 65.7686 14.6558 66.1696 14.981 66.5681C15.1973 66.8337 15.4161 67.0981 15.6375 67.36C15.6691 67.3967 15.6995 67.4346 15.7286 67.4726C15.7324 67.4789 15.7374 67.4852 15.7425 67.4915C15.7703 67.5282 15.7969 67.5662 15.8222 67.6054C15.8513 67.6484 15.8791 67.6927 15.9057 67.737C15.9323 67.7812 15.9588 67.8268 15.9841 67.8723V67.8736C16.0006 67.9039 16.017 67.9343 16.0335 67.9659C16.0929 68.0836 16.1486 68.2038 16.2017 68.3252C16.2194 68.3669 16.2359 68.4074 16.2536 68.4479C16.3067 68.5782 16.356 68.711 16.4041 68.8413C17.0126 70.5023 17.6388 72.157 18.2472 73.8179C18.8545 75.4789 19.4452 77.1462 19.9841 78.8287C20.2068 79.5232 20.4206 80.2253 20.6192 80.9324C20.6609 81.0779 20.7001 81.2246 20.7393 81.3714C20.7798 81.5169 20.8178 81.6636 20.8557 81.8103C20.9557 82.2012 21.0505 82.5947 21.1378 82.9881C21.1834 83.1981 21.2276 83.4068 21.2694 83.6168C21.277 83.6535 21.2846 83.6902 21.2909 83.7269C21.301 83.7775 21.3099 83.8268 21.3187 83.8761C21.3339 83.9495 21.3466 84.0241 21.3605 84.0975C21.3655 84.1228 21.3693 84.1469 21.3731 84.1722C21.3921 84.2708 21.4085 84.3695 21.425 84.4682C21.425 84.4682 21.425 84.4682 21.425 84.4694C21.4579 84.6668 21.4882 84.8641 21.5161 85.0615C21.5148 85.0627 21.5148 85.0627 21.5161 85.064C21.5363 85.2082 21.554 85.3524 21.5717 85.4966C21.5781 85.551 21.5844 85.6054 21.5907 85.6586C21.6957 86.5795 21.7374 87.4928 21.7235 88.3973V88.4517C21.7223 88.5681 21.7197 88.6832 21.7147 88.7996C21.7134 88.8236 21.7134 88.8477 21.7109 88.873C21.7084 88.959 21.7058 89.0463 21.7008 89.1323C21.7008 89.1538 21.6995 89.1753 21.6982 89.1956C21.6944 89.2816 21.6881 89.3689 21.6831 89.4549C21.6805 89.4928 21.6793 89.5295 21.6767 89.5675C21.6704 89.6775 21.6615 89.7889 21.6527 89.8989C21.6502 89.9343 21.6476 89.971 21.6438 90.0064C21.6362 90.1064 21.6274 90.2063 21.616 90.3063C21.6046 90.429 21.592 90.5517 21.5781 90.6744C21.5654 90.7945 21.5515 90.9135 21.5363 91.0336C21.5363 91.0362 21.535 91.0387 21.535 91.0412C21.535 91.0463 21.5338 91.0501 21.5338 91.0551C21.5237 91.1437 21.511 91.2323 21.4984 91.3208C21.4946 91.3537 21.4895 91.3866 21.4857 91.4195C21.4806 91.4511 21.4769 91.4815 21.4718 91.5118C21.4591 91.6067 21.4452 91.7016 21.43 91.7964C21.4136 91.904 21.3959 92.0102 21.3782 92.1178C21.3769 92.1292 21.3756 92.1405 21.3731 92.1519C21.3567 92.2481 21.3402 92.3429 21.3238 92.4391C21.3225 92.4467 21.3213 92.4543 21.32 92.4619C21.2833 92.668 21.2441 92.873 21.2023 93.0792C21.1353 93.4094 21.0632 93.7395 20.986 94.0697C20.9633 94.1671 20.9405 94.2632 20.9177 94.3607C20.876 94.5302 20.8342 94.6997 20.7899 94.8679C20.7722 94.935 20.7545 95.0008 20.7381 95.0653C20.69 95.2474 20.6407 95.4296 20.5888 95.6105C20.5686 95.6826 20.5483 95.7534 20.5281 95.823C20.4787 95.9989 20.4269 96.1747 20.3738 96.3505C20.313 96.5517 20.251 96.7528 20.1865 96.954C20.1347 97.1222 20.0803 97.2892 20.0246 97.4574C19.7261 98.3645 19.3997 99.2677 19.0569 100.166C18.9936 100.329 18.9304 100.495 18.8709 100.662C18.8494 100.719 18.8292 100.776 18.8102 100.834C18.8102 100.835 18.8089 100.838 18.8089 100.839C18.795 100.877 18.7824 100.915 18.7697 100.953C18.7646 100.968 18.7583 100.984 18.7533 100.999C18.7393 101.045 18.7242 101.089 18.7102 101.135C18.7027 101.158 18.6951 101.182 18.6887 101.204C18.6799 101.235 18.671 101.264 18.6634 101.294C18.6521 101.336 18.6394 101.379 18.628 101.422C18.6065 101.507 18.585 101.593 18.5673 101.678C18.5496 101.764 18.5331 101.85 18.5205 101.936C18.5142 101.974 18.5091 102.01 18.5053 102.047C18.499 102.096 18.4939 102.143 18.4901 102.192V102.194C18.4787 102.333 18.4737 102.469 18.4737 102.602C18.4737 102.663 18.475 102.722 18.4775 102.783C18.4787 102.838 18.4825 102.892 18.4863 102.945C18.4901 102.996 18.4939 103.046 18.5003 103.096C18.5028 103.126 18.5066 103.156 18.5104 103.185C18.5167 103.235 18.523 103.284 18.5319 103.332C18.5395 103.382 18.5483 103.43 18.5584 103.478C18.5648 103.512 18.5724 103.546 18.5799 103.58C18.5863 103.612 18.5939 103.643 18.6027 103.675C18.6154 103.727 18.6293 103.779 18.6445 103.829C18.6546 103.866 18.666 103.904 18.6786 103.941C18.6963 104.001 18.7178 104.061 18.7393 104.119C18.7571 104.166 18.7748 104.211 18.7937 104.257C18.7963 104.266 18.8001 104.275 18.8039 104.282C18.8228 104.329 18.8431 104.375 18.8646 104.42V104.421C18.8873 104.471 18.9101 104.519 18.9354 104.567C18.9569 104.61 18.9797 104.653 19.0037 104.696C19.0075 104.705 19.0113 104.712 19.0164 104.72C19.0392 104.759 19.0607 104.798 19.0847 104.836C19.0898 104.849 19.0973 104.86 19.1062 104.873C19.129 104.912 19.153 104.95 19.1783 104.988C19.2061 105.034 19.2365 105.079 19.2681 105.123C19.2681 105.123 19.2681 105.123 19.2681 105.125C19.3301 105.213 19.3946 105.301 19.4642 105.385C19.4984 105.428 19.5325 105.471 19.5679 105.513C19.6388 105.597 19.7121 105.679 19.788 105.76V105.761C19.8273 105.802 19.8652 105.842 19.9044 105.881C19.9436 105.92 19.9841 105.96 20.0246 105.999C20.0651 106.038 20.1056 106.077 20.1473 106.115C20.1891 106.154 20.2321 106.192 20.2751 106.229C20.3181 106.267 20.3611 106.304 20.4054 106.34C20.4712 106.396 20.5382 106.45 20.6065 106.505C20.6293 106.524 20.6521 106.542 20.6748 106.559C20.8583 106.702 21.0493 106.84 21.2466 106.974C21.6236 107.231 22.0056 107.479 22.3902 107.718C22.5192 107.798 22.647 107.876 22.776 107.955H22.7773C22.9063 108.034 23.0354 108.111 23.1644 108.187C23.2542 108.24 23.3466 108.291 23.4376 108.343C23.5161 108.389 23.5958 108.434 23.6742 108.48C23.7197 108.505 23.7653 108.531 23.8108 108.557C23.8551 108.583 23.9006 108.61 23.9474 108.635C24.079 108.709 24.2106 108.781 24.3434 108.85C24.475 108.921 24.6078 108.992 24.7406 109.061C24.8734 109.131 25.0063 109.199 25.1391 109.268C25.2732 109.337 25.4073 109.404 25.5414 109.469C25.6413 109.518 25.7425 109.568 25.8437 109.616C25.8981 109.643 25.9512 109.67 26.0056 109.694C26.103 109.74 26.2005 109.785 26.2979 109.832C26.3308 109.848 26.3636 109.864 26.3978 109.877C26.5559 109.95 26.7141 110.022 26.8734 110.094C26.9101 110.11 26.9481 110.128 26.986 110.144H26.9886C27.1846 110.233 27.382 110.318 27.5806 110.4C27.7185 110.458 27.8564 110.515 27.9943 110.572C28.1321 110.63 28.27 110.686 28.4092 110.74C28.537 110.791 28.6647 110.839 28.7937 110.888C28.8115 110.896 28.8304 110.903 28.8494 110.91C29.1214 111.015 29.3946 111.117 29.6691 111.215C29.8096 111.265 29.9512 111.314 30.0917 111.364C30.2333 111.414 30.375 111.463 30.518 111.511C30.6597 111.557 30.8013 111.605 30.9443 111.651C31.0872 111.698 31.2302 111.745 31.3731 111.789C31.5085 111.831 31.6438 111.871 31.7792 111.913C31.7944 111.917 31.8096 111.922 31.8235 111.926C32.0385 111.99 32.2523 112.053 32.4686 112.115C32.6837 112.177 32.9 112.238 33.1163 112.296C33.5502 112.415 33.9854 112.526 34.4231 112.633C34.6091 112.678 34.7938 112.721 34.9797 112.764C35.1644 112.807 35.3504 112.849 35.5363 112.891C35.7223 112.931 35.907 112.972 36.0929 113.011C36.2789 113.05 36.4649 113.089 36.6508 113.126C36.8254 113.161 36.9987 113.196 37.1733 113.228C37.3023 113.254 37.4313 113.275 37.5591 113.299C37.6894 113.323 37.8184 113.347 37.9487 113.37C38.0259 113.384 38.1031 113.399 38.1802 113.413C38.4155 113.455 38.6508 113.495 38.8861 113.533C38.8874 113.533 38.8874 113.533 38.8874 113.533C39.3845 113.616 39.8817 113.691 40.3801 113.761C40.8229 113.824 41.2656 113.883 41.7096 113.937C41.931 113.965 42.1537 113.991 42.375 114.015C43.0404 114.091 43.7071 114.16 44.375 114.218C44.5964 114.237 44.8191 114.256 45.0417 114.275C45.3605 114.301 45.6793 114.325 45.9981 114.347C46.9405 114.414 47.8855 114.467 48.8305 114.507C48.9785 114.515 49.1265 114.521 49.2745 114.526C49.5869 114.539 49.9007 114.55 50.2144 114.559C52.4168 114.631 54.6243 114.647 56.8317 114.638C57.5364 114.635 58.241 114.63 58.9456 114.624C58.9456 114.624 58.9469 114.624 58.9481 114.624C59.2998 114.621 59.6527 114.617 60.0057 114.614C60.05 114.614 60.093 114.612 60.136 114.61C60.179 114.607 60.222 114.605 60.2637 114.602H60.2688C60.284 114.601 60.3004 114.6 60.3156 114.599C60.3498 114.596 60.3827 114.593 60.4168 114.59C60.4484 114.586 60.4801 114.581 60.5117 114.577C60.5168 114.576 60.5205 114.576 60.5243 114.574C60.5952 114.566 60.666 114.553 60.7356 114.54C60.7483 114.538 60.7609 114.535 60.7736 114.533C60.7837 114.53 60.7951 114.529 60.8064 114.526C60.814 114.525 60.8216 114.523 60.8292 114.521C60.8317 114.52 60.8343 114.52 60.8368 114.519C60.8899 114.507 60.9431 114.495 60.9949 114.481C61.0569 114.464 61.1164 114.445 61.1771 114.426C61.2366 114.406 61.2947 114.386 61.3517 114.363C61.358 114.362 61.3656 114.358 61.3719 114.356C61.4162 114.338 61.4592 114.32 61.5022 114.3C61.5199 114.294 61.5376 114.285 61.5553 114.276C61.5996 114.257 61.6426 114.235 61.6856 114.213C61.6856 114.213 61.6869 114.213 61.6869 114.211C61.7413 114.184 61.7932 114.154 61.845 114.124C61.8982 114.094 61.9488 114.061 61.9981 114.028C62.0487 113.995 62.0968 113.961 62.1448 113.926C62.1461 113.926 62.1461 113.924 62.1461 113.924C62.1942 113.889 62.241 113.852 62.2865 113.813C62.3257 113.781 62.3637 113.748 62.4004 113.714C62.4522 113.667 62.5016 113.619 62.5496 113.57C62.5699 113.55 62.5901 113.528 62.6104 113.507C62.6357 113.479 62.661 113.451 62.6863 113.422C62.7154 113.39 62.7432 113.358 62.7685 113.323C62.7824 113.307 62.7963 113.29 62.8077 113.274C62.8406 113.235 62.871 113.194 62.9001 113.153C62.9279 113.115 62.9557 113.075 62.981 113.036C62.9937 113.018 63.0051 113.001 63.0164 112.983C63.0392 112.948 63.062 112.911 63.0835 112.874C63.0987 112.852 63.1126 112.827 63.1265 112.802C63.1417 112.776 63.1569 112.748 63.1708 112.721C63.1834 112.698 63.1961 112.676 63.2075 112.653C63.2517 112.568 63.2922 112.481 63.3314 112.392C63.3453 112.362 63.3593 112.329 63.3719 112.297C63.4073 112.211 63.4402 112.123 63.4706 112.033C63.4832 111.996 63.4959 111.96 63.5073 111.922C63.5212 111.877 63.5351 111.832 63.5477 111.786C63.5629 111.728 63.5781 111.67 63.5933 111.611C63.6059 111.557 63.6186 111.503 63.63 111.449C63.6312 111.442 63.6325 111.437 63.6338 111.431C63.6338 111.43 63.6338 111.428 63.635 111.427C63.6464 111.37 63.6578 111.312 63.6667 111.254C63.6717 111.234 63.6743 111.213 63.6781 111.193C63.6894 111.12 63.7008 111.044 63.7097 110.968C63.7249 110.836 63.7362 110.702 63.7438 110.566C63.7502 110.45 63.7577 110.335 63.7653 110.222C63.7653 110.218 63.7653 110.213 63.7666 110.209C63.7742 110.099 63.7818 109.989 63.7919 109.88C63.7932 109.86 63.7944 109.839 63.7982 109.821C63.8185 109.586 63.8425 109.355 63.8729 109.123C63.8855 109.016 63.8994 108.908 63.9159 108.802C63.931 108.686 63.9488 108.571 63.9677 108.456C63.9854 108.34 64.0057 108.225 64.0272 108.111C64.0462 107.996 64.0677 107.882 64.0917 107.77C64.1132 107.656 64.1372 107.542 64.1625 107.43C64.1866 107.317 64.2131 107.204 64.241 107.092C64.2625 107.002 64.284 106.913 64.308 106.825C64.3207 106.773 64.3346 106.721 64.3498 106.671C64.3915 106.506 64.4383 106.344 64.4877 106.182C64.5307 106.032 64.5775 105.882 64.6281 105.733C64.6597 105.635 64.6926 105.537 64.728 105.44C64.7609 105.341 64.7963 105.242 64.8343 105.145C64.8393 105.126 64.8469 105.108 64.8545 105.089C64.8912 104.991 64.9292 104.892 64.9684 104.795C65.0101 104.688 65.0531 104.582 65.0987 104.477C65.1531 104.344 65.2113 104.213 65.272 104.082C65.3061 104.004 65.3415 103.925 65.3782 103.848C65.4276 103.745 65.4769 103.641 65.5288 103.538L65.53 103.537C65.5794 103.435 65.6325 103.332 65.6856 103.231C65.6856 103.23 65.6869 103.23 65.6869 103.23C65.74 103.127 65.7957 103.025 65.8526 102.924C65.9627 102.721 66.0791 102.52 66.2018 102.321C66.3219 102.123 66.4485 101.927 66.5787 101.732C66.5787 101.732 66.5787 101.731 66.58 101.731C66.6445 101.633 66.7116 101.536 66.7799 101.44C66.8469 101.342 66.9165 101.246 66.9873 101.151C67.0569 101.055 67.1278 100.962 67.2011 100.867C67.2732 100.772 67.3466 100.678 67.4225 100.585C67.4972 100.491 67.5731 100.399 67.6502 100.306C67.6667 100.287 67.6831 100.268 67.7008 100.249C67.7185 100.23 67.7375 100.211 67.7565 100.192C67.7755 100.173 67.7957 100.154 67.8147 100.137C67.8349 100.119 67.8564 100.101 67.8767 100.084C67.9184 100.048 67.9627 100.014 68.0082 99.9824C68.031 99.966 68.055 99.9508 68.0791 99.9356C68.1031 99.9192 68.1271 99.9053 68.1512 99.8913C68.1752 99.8762 68.1992 99.8622 68.2245 99.8496C68.2486 99.8357 68.2739 99.823 68.2992 99.8116C68.3485 99.7876 68.3991 99.7648 68.4497 99.7471C68.4662 99.7395 68.4839 99.7332 68.5003 99.7281C68.5168 99.7218 68.5345 99.7168 68.5509 99.7117C68.5572 99.7092 68.5636 99.7079 68.5699 99.7054C68.599 99.6978 68.6281 99.6902 68.6572 99.6839C68.685 99.6776 68.7116 99.6725 68.7394 99.6674C68.7432 99.6674 68.7457 99.6662 68.7495 99.6662C69.7274 99.5245 70.7053 99.3828 71.6819 99.2424C71.7426 99.2335 71.8046 99.2247 71.8653 99.2158C72.7381 99.0906 73.6085 98.9666 74.4826 98.8464C75.0165 98.7718 75.5503 98.6972 76.0841 98.6251C76.5737 98.5593 77.0633 98.4947 77.5528 98.4302C78.532 98.3025 79.5124 98.1798 80.4927 98.0634C81.0304 98.0001 81.5503 97.909 82.05 97.7914C82.093 97.7813 82.1373 97.7712 82.1803 97.7585C82.2448 97.7446 82.3081 97.7294 82.3713 97.7117C82.4067 97.7028 82.4421 97.694 82.4776 97.6839C82.5408 97.6674 82.6041 97.6497 82.6673 97.6307C82.7065 97.6206 82.7458 97.6092 82.785 97.5979C82.8052 97.5915 82.8254 97.5852 82.847 97.5789C82.8659 97.5725 82.8849 97.5675 82.9051 97.5612C82.9444 97.5498 82.9836 97.5371 83.0241 97.5232C83.1 97.4992 83.1759 97.4751 83.2505 97.4486C83.3315 97.4233 83.4112 97.3954 83.4896 97.3664C83.6427 97.3107 83.7945 97.2525 83.9425 97.1918L83.9437 97.1905C84.0184 97.1614 84.0905 97.1311 84.1638 97.0982C84.2081 97.0792 84.2524 97.0589 84.2967 97.0374C84.3372 97.021 84.3776 97.0033 84.4181 96.983C84.47 96.959 84.5218 96.935 84.5724 96.9097C84.5977 96.8996 84.6218 96.8869 84.6471 96.8743C84.7002 96.849 84.7533 96.8224 84.8052 96.7958C84.828 96.7844 84.8495 96.7718 84.8723 96.7591C84.9874 96.6997 85.1012 96.6377 85.2138 96.5744C85.3479 96.4985 85.4782 96.4201 85.6072 96.3392C85.673 96.2987 85.7375 96.2569 85.8008 96.2126C85.8463 96.1836 85.8919 96.1532 85.9374 96.1203C85.969 96.1001 86.0019 96.0786 86.0335 96.0545C86.0702 96.0292 86.1069 96.0027 86.1436 95.9761C86.2752 95.8825 86.4029 95.7838 86.5282 95.6826C86.5573 95.6598 86.5864 95.6358 86.6155 95.6118C86.6736 95.565 86.7318 95.5169 86.7875 95.4675C86.79 95.4663 86.7913 95.465 86.7926 95.4625C86.852 95.4132 86.9089 95.3613 86.9659 95.3094C87.1038 95.1854 87.2366 95.0564 87.3656 94.9249C87.3972 94.892 87.4289 94.8591 87.4605 94.8249C87.5124 94.7718 87.5617 94.7174 87.611 94.6617C87.6502 94.6187 87.6882 94.5757 87.7249 94.5314C87.7451 94.5099 87.7641 94.4872 87.7818 94.4657C87.8172 94.4252 87.8527 94.3822 87.8855 94.3404C87.9045 94.3202 87.921 94.2987 87.9361 94.2784C87.9703 94.2367 88.0032 94.1949 88.0348 94.1532C88.0513 94.1329 88.0664 94.1127 88.0816 94.0925C88.1132 94.0507 88.1449 94.009 88.1752 93.9672C88.2916 93.8091 88.4017 93.6472 88.5054 93.4815C88.532 93.441 88.556 93.4018 88.58 93.3613C88.6015 93.3271 88.6218 93.293 88.642 93.2588C88.7243 93.1197 88.8027 92.978 88.8773 92.8338C88.9001 92.7895 88.9229 92.7452 88.9444 92.7009C88.957 92.6782 88.9671 92.6567 88.9773 92.6339C88.9975 92.5947 89.0165 92.5542 89.0354 92.5137C89.0645 92.4517 89.0924 92.3885 89.1202 92.324C89.1291 92.3075 89.1367 92.2898 89.143 92.2721C89.1771 92.1924 89.2113 92.1127 89.2429 92.0317C89.2454 92.0254 89.248 92.0191 89.2505 92.0128C89.2809 91.9343 89.3112 91.8546 89.3391 91.7749C89.3454 91.7598 89.3504 91.7459 89.3555 91.7307C89.3846 91.6484 89.4124 91.5662 89.439 91.484C89.4681 91.3916 89.4959 91.2993 89.5225 91.2069C89.5491 91.1171 89.5731 91.026 89.5959 90.935C89.5984 90.9286 89.5997 90.9223 89.6009 90.916C89.6237 90.8249 89.6452 90.7338 89.6654 90.6415C89.6857 90.5466 89.7059 90.4505 89.7236 90.3531C89.7413 90.2557 89.7578 90.1582 89.773 90.0608C89.9513 88.9008 89.9235 87.6522 89.668 86.3429C89.6199 86.1 89.5465 85.8622 89.4542 85.6282C89.4276 85.5612 89.3998 85.4941 89.3707 85.4271C89.3416 85.3613 89.3112 85.2955 89.2796 85.2284C89.2632 85.1956 89.248 85.1627 89.2315 85.1298C89.1986 85.064 89.1645 84.9995 89.1303 84.9337C89.062 84.8034 88.9899 84.6731 88.9165 84.5428C88.8836 84.4859 88.852 84.4289 88.8191 84.372C88.8141 84.3644 88.809 84.3556 88.8052 84.3467C88.5788 83.9596 88.346 83.5725 88.1474 83.1804C87.9475 82.7857 87.5136 82.3783 87.5706 81.9685C87.5718 81.9444 87.5769 81.9204 87.5857 81.8964C87.5883 81.8837 87.5921 81.8723 87.5971 81.8597C87.5996 81.8483 87.6047 81.8369 87.6098 81.8255C87.6212 81.8015 87.6338 81.7762 87.649 81.7522C87.6705 81.7167 87.6971 81.6801 87.7299 81.6446C87.7299 81.6434 87.7299 81.6434 87.7312 81.6434C87.7413 81.6307 87.7527 81.6193 87.7654 81.6079L87.7843 81.589C87.7957 81.5776 87.8084 81.5649 87.8223 81.5548C87.8362 81.5409 87.8527 81.5283 87.8691 81.5156C87.8906 81.4979 87.9134 81.4814 87.9374 81.4637C87.9374 81.4637 87.9387 81.4637 87.9387 81.4625C87.9855 81.4296 88.031 81.3967 88.0753 81.3638C88.1183 81.3309 88.1613 81.2993 88.2031 81.2651C88.3119 81.1804 88.4131 81.0931 88.5105 81.0045C88.5661 80.9527 88.6205 80.9008 88.6737 80.8477L88.6749 80.8464C88.7458 80.7743 88.8141 80.7009 88.8786 80.6276C88.9102 80.5909 88.9418 80.5529 88.9735 80.515C89.0026 80.477 89.0317 80.4403 89.0607 80.4024C89.0898 80.3644 89.1177 80.3265 89.1442 80.2885C89.1455 80.2873 89.1455 80.2873 89.1455 80.2873C89.1721 80.2493 89.1986 80.2114 89.2239 80.1721C89.2556 80.1241 89.2872 80.0747 89.3163 80.0254C89.3454 79.9761 89.3745 79.9255 89.401 79.8761C89.4289 79.8255 89.4542 79.7749 89.4795 79.7243C89.5048 79.6737 89.5288 79.6219 89.5516 79.57C89.5731 79.5194 89.5946 79.4675 89.6161 79.4144C89.6971 79.2057 89.7616 78.9906 89.8109 78.7705C89.8716 78.496 89.9083 78.2126 89.9248 77.9229C89.9248 77.9217 89.9248 77.9204 89.9248 77.9204C89.9475 77.4979 89.9273 77.0589 89.8742 76.6073V76.606C89.8501 76.41 89.821 76.2114 89.7856 76.0102C89.7793 75.9697 89.773 75.928 89.7704 75.8862C89.7692 75.8812 89.7692 75.8774 89.7692 75.8723C89.7654 75.8268 89.7641 75.7813 89.7641 75.7357C89.7641 75.6902 89.7654 75.6446 89.7692 75.5991C89.7717 75.5573 89.7755 75.5156 89.7818 75.4738C89.7818 75.465 89.7831 75.4561 89.7856 75.4473C89.7907 75.4055 89.797 75.3638 89.8058 75.322C89.8134 75.2828 89.8223 75.2436 89.8324 75.2044C89.8349 75.193 89.8375 75.1816 89.8413 75.1702C89.8501 75.1348 89.8602 75.1007 89.8716 75.0665C89.8729 75.0602 89.8754 75.0539 89.878 75.0475C89.8919 75.0033 89.9071 74.959 89.9248 74.9172C89.9412 74.8755 89.9576 74.835 89.9766 74.7958C89.9956 74.7541 90.0158 74.7148 90.0374 74.6769C90.7129 73.4599 90.9305 72.1962 90.4219 70.9147V70.9134C90.3675 70.7781 90.3119 70.644 90.2524 70.5099V70.5086C90.1929 70.3745 90.131 70.2417 90.069 70.1089C90.0209 70.0089 89.9716 69.9103 89.9222 69.8116C89.8729 69.7117 89.8223 69.6117 89.7717 69.5131V69.5118C89.7034 69.379 89.6338 69.2461 89.5642 69.1133C89.5288 69.0475 89.4934 68.9805 89.458 68.9134C89.3871 68.7793 89.315 68.6453 89.2429 68.5099C89.2062 68.4428 89.1708 68.3745 89.1341 68.305C89.0658 68.1772 88.9988 68.0482 88.9317 67.9179C88.8912 67.8394 88.8508 67.761 88.8103 67.6813C88.9684 67.57 89.1316 67.4549 89.296 67.3385C89.7932 66.9881 90.3156 66.6199 90.8368 66.248C91.2733 65.9368 91.7135 65.6294 92.1474 65.3144C92.2777 65.2196 92.408 65.126 92.5358 65.0298C92.6648 64.9337 92.7926 64.8375 92.9203 64.7389C92.9646 64.7047 93.0076 64.6718 93.0494 64.6377C93.2189 64.5061 93.3783 64.3796 93.525 64.2581C93.5984 64.1987 93.6692 64.1392 93.7363 64.081C93.8084 64.0203 93.8767 63.9609 93.9425 63.9014C93.9703 63.8774 93.9969 63.8521 94.0234 63.828C94.0424 63.8116 94.0601 63.7939 94.0778 63.7762C94.1031 63.7534 94.1284 63.7294 94.1525 63.7053C94.1676 63.6914 94.1816 63.6788 94.1942 63.6661V63.6648C94.2499 63.6105 94.2992 63.5599 94.3473 63.5093L94.3485 63.508C94.3966 63.4561 94.4422 63.4043 94.4852 63.3549C94.5282 63.3043 94.5687 63.2537 94.6066 63.2044C94.6433 63.155 94.6787 63.1057 94.7103 63.0576C94.7103 63.0576 94.7103 63.0564 94.7116 63.0564C94.7432 63.0083 94.7723 62.9602 94.7989 62.9122C94.8533 62.8148 94.895 62.7173 94.9267 62.6212C94.938 62.5858 94.9482 62.5516 94.9583 62.5162C94.9583 62.5112 94.9596 62.5074 94.9608 62.5023C94.9697 62.4681 94.976 62.434 94.9823 62.3998C94.9874 62.3631 94.9924 62.3265 94.995 62.2885C94.9988 62.2518 95 62.2139 95 62.1759C95 62.1519 94.9988 62.1266 94.9975 62.1013ZM90.2511 64.0709C89.0797 64.9324 87.8577 65.7332 86.747 66.6668C86.365 66.9881 86.265 67.6358 86.0082 68.1203C85.8666 68.3872 85.7059 68.6693 85.4845 68.8641C84.3637 69.847 83.1341 70.7212 82.1057 71.7914C80.6091 73.3473 80.3814 75.3309 80.5383 77.7433C81.1025 77.3183 81.4655 77.0741 81.7945 76.7907C83.2872 75.5004 84.7369 74.1595 86.2714 72.921C86.8609 72.4454 87.6325 72.1936 88.3207 71.8394C88.4282 71.9077 88.537 71.9748 88.6446 72.0418C88.3865 72.6769 88.2499 73.4093 87.8387 73.9217C87.3327 74.5504 87.1974 75.083 87.4428 75.8496C87.9665 77.484 87.9475 78.9185 86.2511 80.0558C84.9633 80.9172 85.2581 82.892 86.4295 84.5921C87.0532 85.4966 87.3669 86.644 87.668 87.7243C87.7477 88.014 87.3555 88.62 87.0253 88.8085C84.9279 89.9976 84.432 89.7585 82.6256 88.2C79.7299 85.7028 79.6439 82.5592 80.1347 79.1943C80.1879 78.8274 80.2397 78.4606 80.1044 77.9659C79.8944 78.2607 79.6667 78.5441 79.4795 78.8515C78.2258 80.9021 77.8033 83.2158 77.3884 85.5295C77.3024 86.0064 77.2252 86.4871 77.1037 86.9552C76.4813 89.3803 75.2517 90.3695 72.7419 90.496C68.6483 90.7009 64.8368 89.6687 61.2113 87.8496C59.7122 87.0969 58.2852 86.1785 56.7394 85.5498C54.6812 84.7123 52.5471 84.0583 50.4282 83.3828C49.9222 83.2221 49.3428 83.2917 48.4016 83.2272C49.5161 86.8009 50.4725 90.157 51.6198 93.446C52.3928 95.6586 54.3042 96.997 56.1119 98.3101C58.4295 99.9925 60.8355 101.554 63.1126 103.106C62.6167 105.314 62.112 107.552 61.6135 109.793C61.5655 110.009 61.5515 110.235 61.5427 110.458C61.4794 111.969 60.9861 112.495 59.3795 112.488C55.7969 112.473 52.2119 112.478 48.6344 112.323C42.3194 112.047 36.0449 111.349 30.1043 109.048C27.4465 108.018 24.9 106.649 22.4168 105.235C20.2827 104.019 20.0689 102.932 20.9848 100.645C22.9886 95.6345 24.4218 90.4479 23.5692 85.0513C22.9873 81.3663 21.6502 77.799 20.6369 74.1835C20.4775 73.6155 20.2384 73.069 20.0018 72.4138C22.3181 71.7268 23.048 69.9318 23.597 67.828C24.2928 65.169 25.2656 62.582 26.1676 59.9798C26.3687 59.3992 26.7722 58.8881 27.2454 58.0608C27.3719 58.7705 27.4237 59.1841 27.5224 59.5851C29.0645 65.8837 32.709 70.5883 38.413 73.6269C40.456 74.7148 42.6609 75.0298 44.8292 73.761C47.5654 72.1595 47.8564 69.5637 45.7185 67.2246C44.8191 66.2404 44.1954 64.9855 43.5528 63.7951C43.2315 63.2006 43.0063 62.5605 42.2157 62.7528C41.4048 62.9501 41.234 63.5725 41.4845 64.3378C41.5515 64.5415 41.5616 64.7642 41.6489 65.2917C39.9158 64.6516 38.3738 64.1962 36.9342 63.5219C35.2112 62.7161 35.0455 61.7294 36.2561 60.2468C36.7495 59.6446 37.3959 59.1702 37.9045 58.5782C38.3333 58.0772 38.6635 57.4903 39.3542 56.9324C39.3845 58.1595 39.487 59.3903 39.4187 60.6124C39.3744 61.3828 39.2719 62.1278 40.2321 62.2442C41.1189 62.3505 41.3213 61.6585 41.3656 60.9185C41.401 60.3239 41.511 59.7294 41.5047 59.1361C41.4528 54.4605 39.2049 52.5276 34.9367 51.8407C33.4693 51.6041 32.2055 52.2809 31.4237 53.5586C31.2226 53.8875 31.3036 54.6098 31.549 54.9197C31.7248 55.1437 32.5104 55.169 32.8127 54.9666C34.6698 53.7192 35.3112 53.661 37.3693 54.8502C37.21 56.0734 36.499 56.9678 35.6477 57.8457C34.9101 58.6073 34.1865 59.4549 33.7235 60.396C32.9063 62.0545 33.2568 63.6459 34.8178 64.6124C36.2814 65.5206 37.9601 66.0937 39.5718 66.7465C40.8077 67.2461 42.1486 67.5168 43.3238 68.1203C44.2663 68.6035 45.1682 69.379 44.9165 70.6819C44.7482 71.5561 43.4288 72.3619 42.1132 72.3303C41.277 72.3088 40.3472 72.2354 39.6299 71.8584C34.3194 69.0678 30.833 64.7793 29.5679 58.8755C28.6432 54.5617 30.313 51.6699 34.2144 50.2948C35.7362 49.7584 37.1505 49.9254 38.4876 50.7831C39.1328 51.1968 39.7438 51.3751 40.2068 50.6073C40.6875 49.8116 40.0601 49.3916 39.487 49.1449C38.308 48.6351 37.0835 48.2341 35.7539 47.7433C37.0417 46.5453 38.2789 45.2006 39.7084 44.1076C40.4724 43.5231 41.2428 42.945 42.0221 42.377L37.6464 38.248C32.8583 37.9823 24.4193 40.6667 24.4193 40.6667C24.8709 38.6199 29.659 36.5959 29.8083 36.5326C29.554 36.568 17.6312 38.267 18.2295 33.1942C18.819 28.1949 27.1808 31.7268 27.5945 31.9077C27.172 31.7976 18.6634 29.6003 19.5591 33.7028C20.4775 37.9102 39.2897 33.7028 39.2897 33.7028C38.5357 34.9159 29.9335 37.6243 29.7994 37.7066C29.8045 37.7066 29.8247 37.7015 29.8602 37.6927C30.7786 37.4498 37.2593 37.2322 37.9601 37.2575C38.4446 37.2739 41.3618 39.8381 43.1923 41.5345C44.4712 40.6275 45.7742 39.7534 47.105 38.9311C48.0904 38.3214 49.425 38.119 50.6217 38.0431C53.7856 37.8394 56.9595 37.8204 60.1297 37.7015C62.3953 37.6168 63.7033 36.2366 63.5085 33.9558C63.3744 32.3656 62.9937 30.7957 62.7116 29.2195C62.456 27.7888 62.2422 26.3467 61.8982 24.9362C61.673 24.0102 62.0613 23.5446 62.8444 23.3865C64.5939 23.0323 66.3498 22.6705 68.1221 22.4807C70.3789 22.2391 72.6648 22.0266 74.8748 22.8084C75.2834 22.9526 75.7919 23.2372 75.9526 23.5927C78.5914 29.4687 81.1936 35.3612 83.7704 41.2638C84.2284 42.3113 84.1411 43.341 83.7603 44.4959C82.7698 47.4928 83.0215 50.31 85.3024 52.8261C87.6553 55.4207 89.8172 58.1898 92.05 60.8932C92.3308 61.2322 92.5345 61.6357 92.8508 62.1316C91.9615 62.7958 91.1114 63.4397 90.2511 64.0709Z" fill="black"/>
</svg>
