<svg width="84" height="88" viewBox="0 0 84 88" fill="none" xmlns="http://www.w3.org/2000/svg">
<path d="M13.7436 74.2154C14.9333 70.2769 17.1897 66.9128 20.4308 64.2051L20.5128 64.2872C22.2769 65.4359 24.5744 65.641 27.0769 65.2308C35.5282 63.8769 46.1949 55.7128 46.1949 55.7128C46.1949 55.7128 60.5128 41.3949 61.7026 40.2051C62.8923 39.0154 63.9179 39.4256 63.9179 39.4256L65.2718 38.0718C67.4872 40.1641 70.9744 40 73.0256 37.7026L83.2 26.0923L57.1077 0L45.4974 10.1744C43.159 12.2256 43.0359 15.8359 45.2513 18.0103L43.8974 19.3641C43.8974 19.3641 44.3077 20.3897 43.118 21.5795C41.9282 22.7692 27.6103 37.0872 27.6103 37.0872C27.6103 37.0872 19.4462 47.7539 18.0923 56.2051C17.8462 57.7641 17.8051 59.241 18.1333 60.5949C15.0154 63.0974 11.5282 67.0359 9.72307 72.9846C8.28718 77.6615 6.81026 80.5333 5.21026 81.7641C3.89744 82.7898 2.37949 82.8308 0 82.8308V87.0974C2.46154 87.0974 5.29231 87.0974 7.79487 85.1692C10.1744 83.2821 12.0205 79.9179 13.7436 74.2154ZM57.0667 3.15898L80.3282 26.4205L78.1949 27.8154L55.6308 5.25129L57.0667 3.15898ZM53.7436 6.48206L77.0051 29.7436L74.7487 31.2205L52.1846 8.65641L53.7436 6.48206Z" fill="black"/>
</svg>
